<?xml version="1.0" encoding="utf-8"?>
<!-- Generator: Adobe Illustrator 16.0.4, SVG Export Plug-In . SVG Version: 6.00 Build 0)  -->
<!DOCTYPE svg PUBLIC "-//W3C//DTD SVG 1.1//EN" "http://www.w3.org/Graphics/SVG/1.1/DTD/svg11.dtd">
<svg version="1.1" id="features_layouts" xmlns="http://www.w3.org/2000/svg" xmlns:xlink="http://www.w3.org/1999/xlink" x="0px"
	 y="0px" width="560px" height="420px" viewBox="0 0 560 420" enable-background="new 0 0 560 420" xml:space="preserve">
<g id="layouts">
	<g id="elements" opacity="0.4">
		<rect id="toolbar-l" y="13" fill="#888888" width="260" height="17"/>
		<rect id="logo" x="103" y="35" fill="#888888" width="54" height="17"/>
		<rect id="menu-left" y="35" fill="#888888" width="98" height="17"/>
		<rect id="menu-right" x="162" y="35" fill="#888888" width="98" height="17"/>
		<rect id="fullscreen" y="57" fill="#888888" width="260" height="45"/>
		<rect id="search" y="107" fill="#888888" width="260" height="17"/>
		<g id="top-a">
			<rect y="129" fill="#888888" width="260" height="22"/>
		</g>
		<g id="top-b">
			<rect y="156" fill="#888888" width="260" height="22"/>
		</g>
		<rect id="sidebar-a__x28_left_x29_" y="183" fill="#AAAAAA" width="26" height="92"/>
		<rect id="sidebar-b__x28_left_x29_" x="31" y="183" fill="#AAAAAA" width="26" height="92"/>
		<rect id="sidebar-a__x28_right_x29_" x="234" y="183" fill="#AAAAAA" width="26" height="92"/>
		<rect id="sidebar-b__x28_right_x29_" x="203" y="183" fill="#AAAAAA" width="26" height="92"/>
		<g id="inner_top">
			<rect x="62" y="183" fill="#888888" width="136" height="20"/>
		</g>
		<rect id="content" x="62" y="208" fill="#888888" width="136" height="42"/>
		<g id="inner_bottom">
			<rect x="62" y="255" fill="#888888" width="136" height="20"/>
		</g>
		<g id="bottom-a">
			<rect y="280" fill="#888888" width="260" height="22"/>
		</g>
		<g id="bottom-b">
			<rect y="307" fill="#888888" width="260" height="22"/>
		</g>
		<g id="bottom-c">
			<rect y="334" fill="#888888" width="260" height="22"/>
		</g>
		<g id="bottom-d">
			<rect y="361" fill="#888888" width="260" height="22"/>
		</g>
		<rect id="footer" y="388" fill="#888888" width="260" height="17"/>
	</g>
	<g id="text_paths">
		<g id="toolbar">
			<path fill="#FFFFFF" d="M111.478,25h-0.747v-5.761h-2.035v-0.664h4.816v0.664h-2.035L111.478,25L111.478,25z"/>
			<path fill="#FFFFFF" d="M120.056,21.779c0,1.028-0.26,1.837-0.78,2.426s-1.243,0.883-2.168,0.883
				c-0.946,0-1.676-0.289-2.191-0.868c-0.514-0.578-0.771-1.395-0.771-2.45c0-1.046,0.258-1.857,0.773-2.432
				c0.516-0.576,1.248-0.864,2.197-0.864c0.923,0,1.644,0.293,2.162,0.879S120.056,20.748,120.056,21.779z M114.937,21.779
				c0,0.87,0.185,1.53,0.556,1.98c0.37,0.45,0.909,0.674,1.615,0.674c0.712,0,1.25-0.224,1.613-0.672
				c0.363-0.448,0.545-1.109,0.545-1.982c0-0.864-0.181-1.52-0.543-1.966c-0.362-0.446-0.897-0.67-1.606-0.67
				c-0.712,0-1.253,0.225-1.624,0.674C115.122,20.267,114.937,20.92,114.937,21.779z"/>
			<path fill="#FFFFFF" d="M127.065,21.779c0,1.028-0.26,1.837-0.78,2.426s-1.243,0.883-2.168,0.883
				c-0.947,0-1.677-0.289-2.191-0.868c-0.514-0.578-0.771-1.395-0.771-2.45c0-1.046,0.258-1.857,0.773-2.432
				c0.516-0.576,1.248-0.864,2.197-0.864c0.924,0,1.645,0.293,2.162,0.879C126.807,19.939,127.065,20.748,127.065,21.779z
				 M121.945,21.779c0,0.87,0.186,1.53,0.557,1.98c0.37,0.45,0.908,0.674,1.615,0.674c0.711,0,1.249-0.224,1.612-0.672
				c0.363-0.448,0.545-1.109,0.545-1.982c0-0.864-0.181-1.52-0.543-1.966c-0.361-0.447-0.897-0.67-1.606-0.67
				c-0.711,0-1.253,0.225-1.623,0.674C122.131,20.267,121.945,20.92,121.945,21.779z"/>
			<path fill="#FFFFFF" d="M128.498,25v-6.425h0.748v5.748h2.834V25H128.498z"/>
			<path fill="#FFFFFF" d="M133.169,18.575h1.815c0.853,0,1.469,0.127,1.851,0.382c0.38,0.255,0.57,0.658,0.57,1.208
				c0,0.381-0.105,0.695-0.318,0.942c-0.212,0.248-0.522,0.408-0.93,0.481v0.044c0.977,0.167,1.464,0.68,1.464,1.538
				c0,0.574-0.194,1.022-0.582,1.345C136.65,24.839,136.107,25,135.411,25h-2.242V18.575L133.169,18.575z M133.917,21.326h1.23
				c0.527,0,0.906-0.083,1.138-0.248s0.347-0.445,0.347-0.837c0-0.36-0.129-0.62-0.387-0.78c-0.258-0.16-0.668-0.24-1.23-0.24
				h-1.098V21.326z M133.917,21.959v2.404h1.34c0.519,0,0.909-0.1,1.171-0.301c0.263-0.2,0.394-0.515,0.394-0.942
				c0-0.398-0.134-0.691-0.402-0.879s-0.676-0.281-1.224-0.281L133.917,21.959L133.917,21.959z"/>
			<path fill="#FFFFFF" d="M143.039,25l-0.8-2.043h-2.575L138.873,25h-0.756l2.54-6.451h0.628L143.812,25H143.039z M142.006,22.284
				l-0.746-1.991c-0.098-0.252-0.197-0.561-0.299-0.927c-0.065,0.281-0.157,0.59-0.277,0.927l-0.756,1.991H142.006z"/>
			<path fill="#FFFFFF" d="M145.443,22.328V25h-0.748v-6.425h1.763c0.788,0,1.37,0.151,1.747,0.453
				c0.376,0.302,0.564,0.756,0.564,1.362c0,0.85-0.431,1.424-1.292,1.723L149.223,25h-0.884l-1.556-2.672H145.443z M145.443,21.687
				h1.023c0.527,0,0.914-0.104,1.16-0.314c0.246-0.209,0.369-0.523,0.369-0.942c0-0.425-0.125-0.731-0.376-0.918
				c-0.25-0.188-0.652-0.281-1.206-0.281h-0.971L145.443,21.687L145.443,21.687z"/>
		</g>
		<g id="logo_4_">
			<path fill="#FFFFFF" d="M118.69,47v-6.425h0.747v5.748h2.834V47H118.69z"/>
			<path fill="#FFFFFF" d="M128.938,43.779c0,1.028-0.26,1.837-0.78,2.426s-1.243,0.883-2.168,0.883
				c-0.946,0-1.676-0.289-2.191-0.868c-0.514-0.578-0.771-1.395-0.771-2.45c0-1.046,0.258-1.857,0.773-2.432
				c0.516-0.576,1.248-0.864,2.197-0.864c0.923,0,1.644,0.293,2.162,0.879S128.938,42.748,128.938,43.779z M123.819,43.779
				c0,0.87,0.185,1.53,0.556,1.98c0.37,0.45,0.909,0.674,1.615,0.674c0.712,0,1.25-0.224,1.613-0.672
				c0.363-0.448,0.545-1.109,0.545-1.982c0-0.864-0.181-1.52-0.543-1.966s-0.897-0.67-1.606-0.67c-0.712,0-1.253,0.225-1.624,0.674
				C124.004,42.267,123.819,42.92,123.819,43.779z"/>
			<path fill="#FFFFFF" d="M133.197,43.634h2.184v3.125c-0.34,0.108-0.686,0.19-1.037,0.246c-0.351,0.056-0.759,0.083-1.222,0.083
				c-0.973,0-1.73-0.289-2.272-0.868c-0.542-0.578-0.813-1.389-0.813-2.432c0-0.668,0.134-1.253,0.402-1.755
				c0.269-0.502,0.654-0.886,1.158-1.151c0.504-0.265,1.094-0.398,1.771-0.398c0.686,0,1.324,0.126,1.916,0.378l-0.29,0.659
				c-0.58-0.246-1.138-0.369-1.674-0.369c-0.782,0-1.393,0.233-1.833,0.699c-0.44,0.466-0.659,1.112-0.659,1.938
				c0,0.867,0.211,1.525,0.635,1.973c0.423,0.448,1.045,0.672,1.865,0.672c0.445,0,0.88-0.051,1.305-0.154v-1.979h-1.437
				L133.197,43.634L133.197,43.634z"/>
			<path fill="#FFFFFF" d="M142.5,43.779c0,1.028-0.26,1.837-0.78,2.426s-1.243,0.883-2.168,0.883c-0.946,0-1.676-0.289-2.191-0.868
				c-0.514-0.578-0.771-1.395-0.771-2.45c0-1.046,0.258-1.857,0.773-2.432c0.516-0.576,1.248-0.864,2.197-0.864
				c0.923,0,1.644,0.293,2.162,0.879S142.5,42.748,142.5,43.779z M137.38,43.779c0,0.87,0.185,1.53,0.556,1.98
				c0.37,0.45,0.909,0.674,1.615,0.674c0.712,0,1.25-0.224,1.613-0.672c0.363-0.448,0.545-1.109,0.545-1.982
				c0-0.864-0.181-1.52-0.543-1.966s-0.897-0.67-1.606-0.67c-0.712,0-1.253,0.225-1.624,0.674
				C137.565,42.267,137.38,42.92,137.38,43.779z"/>
		</g>
		<g id="menu-left_1_">
			<path fill="#FFFFFF" d="M40.06,46.833l-2.18-5.695h-0.035c0.041,0.451,0.062,0.987,0.062,1.608v4.087h-0.69v-6.425h1.125
				l2.035,5.3h0.035l2.052-5.3h1.116v6.425h-0.747v-4.14c0-0.475,0.021-0.99,0.062-1.547H42.86l-2.197,5.687H40.06z"/>
			<path fill="#FFFFFF" d="M48.924,46.833h-3.582v-6.425h3.582v0.664H46.09v2.07h2.663v0.659H46.09v2.364h2.834V46.833z"/>
			<path fill="#FFFFFF" d="M55.366,46.833h-0.853l-3.511-5.392h-0.035c0.047,0.633,0.07,1.213,0.07,1.74v3.652h-0.69v-6.425h0.844
				l3.502,5.37h0.035c-0.006-0.079-0.019-0.333-0.04-0.763c-0.021-0.429-0.028-0.736-0.022-0.92v-3.687h0.699L55.366,46.833
				L55.366,46.833z"/>
			<path fill="#FFFFFF" d="M61.984,40.408v4.157c0,0.732-0.221,1.308-0.664,1.727c-0.443,0.419-1.05,0.628-1.824,0.628
				s-1.372-0.211-1.795-0.633c-0.423-0.422-0.635-1.002-0.635-1.74v-4.14h0.747v4.192c0,0.536,0.146,0.948,0.439,1.235
				s0.724,0.431,1.292,0.431c0.542,0,0.959-0.144,1.252-0.433c0.293-0.288,0.439-0.702,0.439-1.241v-4.184L61.984,40.408
				L61.984,40.408z"/>
		</g>
		<g id="menu-right_1_">
			<path fill="#FFFFFF" d="M201.06,46.833l-2.18-5.695h-0.035c0.041,0.451,0.062,0.987,0.062,1.608v4.087h-0.69v-6.425h1.125
				l2.035,5.3h0.035l2.052-5.3h1.116v6.425h-0.747v-4.14c0-0.475,0.021-0.99,0.062-1.547h-0.035l-2.197,5.687H201.06z"/>
			<path fill="#FFFFFF" d="M209.924,46.833h-3.582v-6.425h3.582v0.664h-2.834v2.07h2.663v0.659h-2.663v2.364h2.834V46.833z"/>
			<path fill="#FFFFFF" d="M216.366,46.833h-0.853l-3.511-5.392h-0.035c0.047,0.633,0.07,1.213,0.07,1.74v3.652h-0.69v-6.425h0.844
				l3.502,5.37h0.035c-0.006-0.079-0.019-0.333-0.04-0.763c-0.021-0.429-0.028-0.736-0.022-0.92v-3.687h0.699L216.366,46.833
				L216.366,46.833z"/>
			<path fill="#FFFFFF" d="M222.984,40.408v4.157c0,0.732-0.221,1.308-0.664,1.727c-0.443,0.419-1.05,0.628-1.824,0.628
				s-1.372-0.211-1.795-0.633c-0.423-0.422-0.635-1.002-0.635-1.74v-4.14h0.747v4.192c0,0.536,0.146,0.948,0.439,1.235
				s0.724,0.431,1.292,0.431c0.542,0,0.959-0.144,1.252-0.433c0.293-0.288,0.439-0.702,0.439-1.241v-4.184L222.984,40.408
				L222.984,40.408z"/>
		</g>
		<g id="fullscreen_1_">
			<path fill="#FFFFFF" d="M110.248,84H109.5v-6.425h3.582v0.664h-2.834v2.351h2.663v0.664h-2.663V84z"/>
			<path fill="#FFFFFF" d="M118.997,77.575v4.157c0,0.732-0.221,1.308-0.664,1.727s-1.05,0.628-1.824,0.628
				c-0.774,0-1.372-0.211-1.795-0.633c-0.423-0.422-0.635-1.002-0.635-1.74v-4.14h0.747v4.192c0,0.536,0.146,0.948,0.439,1.235
				s0.724,0.431,1.292,0.431c0.542,0,0.959-0.144,1.252-0.433c0.293-0.288,0.439-0.702,0.439-1.241v-4.184L118.997,77.575
				L118.997,77.575z"/>
			<path fill="#FFFFFF" d="M120.697,84v-6.425h0.748v5.748h2.834V84H120.697z"/>
			<path fill="#FFFFFF" d="M125.369,84v-6.425h0.748v5.748h2.834V84H125.369z"/>
			<path fill="#FFFFFF" d="M133.666,82.291c0,0.565-0.205,1.006-0.615,1.323c-0.41,0.317-0.967,0.475-1.67,0.475
				c-0.762,0-1.348-0.098-1.758-0.294v-0.721c0.264,0.111,0.551,0.199,0.861,0.264s0.618,0.097,0.923,0.097
				c0.498,0,0.873-0.094,1.125-0.284c0.252-0.188,0.378-0.452,0.378-0.789c0-0.223-0.045-0.405-0.134-0.547
				c-0.09-0.142-0.239-0.273-0.448-0.393c-0.21-0.12-0.528-0.256-0.956-0.409c-0.598-0.214-1.024-0.467-1.281-0.76
				c-0.256-0.293-0.385-0.675-0.385-1.147c0-0.495,0.187-0.889,0.559-1.182s0.864-0.439,1.477-0.439
				c0.639,0,1.227,0.117,1.762,0.352l-0.232,0.65c-0.53-0.223-1.046-0.334-1.547-0.334c-0.396,0-0.705,0.085-0.928,0.255
				c-0.223,0.17-0.334,0.406-0.334,0.708c0,0.223,0.041,0.405,0.123,0.547c0.082,0.143,0.221,0.272,0.416,0.392
				c0.194,0.118,0.492,0.25,0.895,0.393c0.673,0.24,1.137,0.498,1.391,0.773C133.539,81.494,133.666,81.851,133.666,82.291z"/>
			<path fill="#FFFFFF" d="M137.731,78.151c-0.707,0-1.264,0.235-1.673,0.706c-0.408,0.47-0.612,1.114-0.612,1.931
				c0,0.841,0.196,1.491,0.591,1.949c0.394,0.459,0.956,0.688,1.685,0.688c0.449,0,0.96-0.081,1.534-0.242v0.655
				c-0.445,0.167-0.995,0.25-1.647,0.25c-0.947,0-1.677-0.287-2.191-0.861c-0.514-0.574-0.771-1.39-0.771-2.448
				c0-0.662,0.124-1.242,0.372-1.74c0.247-0.498,0.604-0.882,1.072-1.151c0.467-0.27,1.017-0.404,1.649-0.404
				c0.674,0,1.263,0.123,1.768,0.369l-0.316,0.642C138.703,78.265,138.217,78.151,137.731,78.151z"/>
			<path fill="#FFFFFF" d="M141.405,81.328V84h-0.748v-6.425h1.763c0.788,0,1.37,0.151,1.747,0.453
				c0.376,0.302,0.564,0.756,0.564,1.362c0,0.85-0.431,1.424-1.292,1.723L145.185,84h-0.884l-1.556-2.672H141.405z M141.405,80.687
				h1.023c0.527,0,0.914-0.104,1.16-0.314c0.246-0.209,0.369-0.523,0.369-0.942c0-0.425-0.125-0.731-0.376-0.918
				c-0.25-0.188-0.652-0.281-1.206-0.281h-0.971L141.405,80.687L141.405,80.687z"/>
			<path fill="#FFFFFF" d="M149.803,84h-3.582v-6.425h3.582v0.664h-2.834v2.07h2.662v0.659h-2.662v2.364h2.834V84z"/>
			<path fill="#FFFFFF" d="M154.809,84h-3.582v-6.425h3.582v0.664h-2.834v2.07h2.662v0.659h-2.662v2.364h2.834V84z"/>
			<path fill="#FFFFFF" d="M161.251,84h-0.854l-3.511-5.392h-0.035c0.047,0.633,0.07,1.213,0.07,1.74V84h-0.69v-6.425h0.844
				l3.503,5.37h0.035c-0.006-0.079-0.02-0.333-0.04-0.763c-0.021-0.429-0.027-0.736-0.021-0.92v-3.687h0.699V84L161.251,84z"/>
		</g>
		<g id="search_1_">
			<path fill="#FFFFFF" d="M118.366,117.291c0,0.565-0.205,1.006-0.615,1.323c-0.41,0.317-0.967,0.475-1.67,0.475
				c-0.762,0-1.348-0.098-1.758-0.294v-0.721c0.264,0.111,0.551,0.199,0.861,0.264s0.618,0.097,0.923,0.097
				c0.498,0,0.873-0.094,1.125-0.284c0.252-0.188,0.378-0.452,0.378-0.789c0-0.223-0.045-0.405-0.134-0.547
				c-0.09-0.142-0.239-0.273-0.448-0.393c-0.21-0.12-0.528-0.256-0.956-0.409c-0.598-0.214-1.025-0.467-1.281-0.76
				s-0.384-0.675-0.384-1.147c0-0.495,0.186-0.889,0.558-1.182s0.864-0.439,1.477-0.439c0.639,0,1.226,0.117,1.762,0.352
				l-0.233,0.65c-0.53-0.223-1.046-0.334-1.547-0.334c-0.396,0-0.705,0.085-0.927,0.255c-0.222,0.17-0.334,0.406-0.334,0.708
				c0,0.223,0.041,0.405,0.123,0.547c0.082,0.143,0.22,0.272,0.416,0.392c0.194,0.118,0.493,0.25,0.894,0.393
				c0.674,0.24,1.137,0.498,1.391,0.773C118.239,116.494,118.366,116.851,118.366,117.291z"/>
			<path fill="#FFFFFF" d="M123.262,119h-3.582v-6.425h3.582v0.664h-2.834v2.07h2.663v0.659h-2.663v2.364h2.834V119z"/>
			<path fill="#FFFFFF" d="M128.724,119l-0.8-2.043h-2.575L124.558,119h-0.756l2.54-6.451h0.628l2.528,6.451H128.724z
				 M127.691,116.284l-0.747-1.991c-0.097-0.252-0.196-0.561-0.299-0.927c-0.064,0.281-0.157,0.59-0.277,0.927l-0.756,1.991H127.691
				z"/>
			<path fill="#FFFFFF" d="M131.128,116.328V119h-0.747v-6.425h1.762c0.788,0,1.37,0.151,1.747,0.453
				c0.376,0.302,0.564,0.756,0.564,1.362c0,0.85-0.431,1.424-1.292,1.723l1.745,2.887h-0.883l-1.556-2.672H131.128z
				 M131.128,115.687h1.024c0.527,0,0.914-0.104,1.16-0.314c0.246-0.209,0.369-0.523,0.369-0.942c0-0.425-0.125-0.731-0.376-0.918
				c-0.25-0.188-0.652-0.281-1.206-0.281h-0.971V115.687L131.128,115.687z"/>
			<path fill="#FFFFFF" d="M138.695,113.151c-0.706,0-1.264,0.235-1.672,0.706c-0.408,0.47-0.613,1.114-0.613,1.931
				c0,0.841,0.197,1.491,0.591,1.949c0.394,0.459,0.956,0.688,1.685,0.688c0.448,0,0.959-0.081,1.535-0.242v0.655
				c-0.445,0.167-0.996,0.25-1.648,0.25c-0.946,0-1.676-0.287-2.191-0.861c-0.514-0.574-0.771-1.39-0.771-2.448
				c0-0.662,0.124-1.242,0.372-1.74c0.247-0.498,0.604-0.882,1.073-1.151c0.467-0.27,1.016-0.404,1.649-0.404
				c0.674,0,1.263,0.123,1.767,0.369l-0.316,0.642C139.668,113.265,139.182,113.151,138.695,113.151z"/>
			<path fill="#FFFFFF" d="M146.5,119h-0.747v-3.023h-3.384V119h-0.747v-6.425h0.747v2.733h3.384v-2.733h0.747V119z"/>
		</g>
		<g id="top-a_1_">
			<path fill="#FFFFFF" d="M122.363,143h-0.747v-5.761h-2.035v-0.664h4.816v0.664h-2.035L122.363,143L122.363,143z"/>
			<path fill="#FFFFFF" d="M130.941,139.779c0,1.028-0.26,1.837-0.78,2.426s-1.243,0.883-2.168,0.883
				c-0.946,0-1.676-0.289-2.191-0.868c-0.514-0.578-0.771-1.395-0.771-2.45c0-1.046,0.258-1.857,0.773-2.432
				c0.516-0.576,1.248-0.864,2.197-0.864c0.923,0,1.644,0.293,2.162,0.879S130.941,138.748,130.941,139.779z M125.821,139.779
				c0,0.87,0.185,1.53,0.556,1.98c0.37,0.45,0.909,0.674,1.615,0.674c0.712,0,1.25-0.224,1.613-0.672
				c0.363-0.448,0.545-1.109,0.545-1.982c0-0.864-0.181-1.52-0.543-1.966s-0.897-0.67-1.606-0.67c-0.712,0-1.253,0.225-1.624,0.674
				C126.006,138.267,125.821,138.92,125.821,139.779z"/>
			<path fill="#FFFFFF" d="M136.447,138.447c0,0.65-0.222,1.151-0.666,1.501c-0.443,0.35-1.079,0.525-1.905,0.525h-0.756V143h-0.747
				v-6.425h1.666C135.645,136.575,136.447,137.199,136.447,138.447z M133.121,139.832h0.672c0.662,0,1.141-0.107,1.437-0.321
				c0.296-0.214,0.444-0.557,0.444-1.028c0-0.425-0.139-0.741-0.417-0.949c-0.278-0.208-0.712-0.312-1.301-0.312h-0.835V139.832
				L133.121,139.832z"/>
			<path fill="#FFFFFF" d="M137.278,140.921v-0.668h2.158v0.668H137.278z"/>
			<path fill="#FFFFFF" d="M144.727,143l-0.8-2.043h-2.575L140.561,143h-0.756l2.54-6.451h0.628L145.5,143H144.727z
				 M143.694,140.284l-0.747-1.991c-0.097-0.252-0.196-0.561-0.299-0.927c-0.064,0.281-0.157,0.59-0.277,0.927l-0.756,1.991H143.694
				z"/>
		</g>
		<g id="top-b_1_">
			<path fill="#FFFFFF" d="M122.294,171h-0.747v-5.761h-2.035v-0.664h4.816v0.664h-2.035L122.294,171L122.294,171z"/>
			<path fill="#FFFFFF" d="M130.873,167.779c0,1.027-0.26,1.837-0.78,2.426c-0.52,0.589-1.243,0.883-2.168,0.883
				c-0.946,0-1.676-0.289-2.191-0.867c-0.514-0.578-0.771-1.396-0.771-2.451c0-1.045,0.258-1.856,0.773-2.432
				c0.516-0.576,1.248-0.863,2.197-0.863c0.923,0,1.644,0.293,2.162,0.879C130.613,165.939,130.873,166.748,130.873,167.779z
				 M125.753,167.779c0,0.869,0.185,1.529,0.556,1.979c0.37,0.45,0.909,0.675,1.615,0.675c0.712,0,1.25-0.225,1.613-0.672
				c0.363-0.449,0.545-1.109,0.545-1.982c0-0.864-0.181-1.521-0.543-1.967c-0.362-0.445-0.897-0.67-1.606-0.67
				c-0.712,0-1.253,0.226-1.624,0.674C125.938,166.268,125.753,166.92,125.753,167.779z"/>
			<path fill="#FFFFFF" d="M136.379,166.447c0,0.65-0.222,1.15-0.666,1.501c-0.443,0.35-1.079,0.524-1.905,0.524h-0.756V171h-0.747
				v-6.425h1.666C135.576,164.575,136.379,165.199,136.379,166.447z M133.052,167.832h0.672c0.662,0,1.141-0.107,1.437-0.321
				c0.296-0.214,0.444-0.557,0.444-1.028c0-0.424-0.139-0.74-0.417-0.948s-0.712-0.312-1.301-0.312h-0.835V167.832L133.052,167.832z
				"/>
			<path fill="#FFFFFF" d="M137.209,168.921v-0.668h2.158v0.668H137.209z"/>
			<path fill="#FFFFFF" d="M140.62,164.575h1.815c0.853,0,1.469,0.127,1.85,0.382c0.381,0.255,0.571,0.658,0.571,1.208
				c0,0.381-0.106,0.694-0.319,0.942c-0.212,0.248-0.522,0.408-0.929,0.48v0.044c0.976,0.167,1.463,0.681,1.463,1.538
				c0,0.574-0.194,1.021-0.582,1.346c-0.389,0.321-0.931,0.482-1.628,0.482h-2.241V164.575z M141.367,167.326h1.23
				c0.527,0,0.907-0.083,1.138-0.248s0.347-0.445,0.347-0.837c0-0.36-0.129-0.62-0.387-0.78c-0.258-0.16-0.668-0.24-1.23-0.24
				h-1.099L141.367,167.326L141.367,167.326z M141.367,167.959v2.404h1.34c0.519,0,0.909-0.1,1.171-0.301
				c0.262-0.201,0.394-0.516,0.394-0.942c0-0.397-0.134-0.69-0.402-0.879s-0.676-0.281-1.224-0.281L141.367,167.959L141.367,167.959
				z"/>
		</g>
		<g id="main-top">
			<path fill="#FFFFFF" d="M115.344,196l-2.18-5.695h-0.035c0.041,0.451,0.062,0.987,0.062,1.608V196h-0.69v-6.425h1.125l2.035,5.3
				h0.035l2.052-5.3h1.116V196h-0.747v-4.14c0-0.475,0.021-0.99,0.062-1.547h-0.035L115.946,196H115.344z"/>
			<path fill="#FFFFFF" d="M124.664,196l-0.799-2.043h-2.576l-0.79,2.043h-0.756l2.54-6.451h0.628l2.526,6.451H124.664z
				 M123.632,193.284l-0.747-1.991c-0.097-0.252-0.196-0.561-0.299-0.927c-0.064,0.281-0.157,0.591-0.277,0.927l-0.756,1.991
				H123.632z"/>
			<path fill="#FFFFFF" d="M126.32,196v-6.425h0.748V196H126.32z"/>
			<path fill="#FFFFFF" d="M133.85,196h-0.854l-3.511-5.393h-0.035c0.047,0.633,0.07,1.213,0.07,1.74V196h-0.69v-6.425h0.844
				l3.503,5.37h0.035c-0.006-0.079-0.02-0.333-0.04-0.763c-0.021-0.429-0.027-0.735-0.021-0.921v-3.687h0.699V196L133.85,196z"/>
			<path fill="#FFFFFF" d="M135.102,193.922v-0.668h2.158v0.668H135.102z"/>
			<path fill="#FFFFFF" d="M140.49,196h-0.748v-5.762h-2.034v-0.663h4.816v0.663h-2.034V196z"/>
			<path fill="#FFFFFF" d="M149.067,192.779c0,1.027-0.26,1.836-0.78,2.426c-0.52,0.588-1.243,0.883-2.168,0.883
				c-0.947,0-1.677-0.289-2.191-0.868c-0.514-0.578-0.771-1.396-0.771-2.45c0-1.045,0.258-1.856,0.773-2.432
				c0.516-0.576,1.248-0.863,2.197-0.863c0.924,0,1.645,0.293,2.162,0.879C148.809,190.939,149.067,191.748,149.067,192.779z
				 M143.947,192.779c0,0.869,0.186,1.529,0.557,1.979c0.37,0.45,0.908,0.675,1.615,0.675c0.711,0,1.249-0.225,1.612-0.673
				c0.363-0.448,0.545-1.108,0.545-1.981c0-0.865-0.181-1.52-0.543-1.967c-0.361-0.447-0.897-0.67-1.606-0.67
				c-0.711,0-1.253,0.225-1.623,0.674C144.133,191.267,143.947,191.92,143.947,192.779z"/>
			<path fill="#FFFFFF" d="M154.574,191.447c0,0.65-0.222,1.15-0.666,1.501c-0.443,0.351-1.078,0.524-1.904,0.524h-0.756V196H150.5
				v-6.425h1.666C153.771,189.575,154.574,190.199,154.574,191.447z M151.248,192.832h0.672c0.662,0,1.141-0.107,1.438-0.321
				c0.295-0.214,0.443-0.557,0.443-1.028c0-0.425-0.14-0.741-0.418-0.949c-0.278-0.208-0.711-0.312-1.301-0.312h-0.834V192.832z"/>
		</g>
		<g id="content_1_">
			<path fill="#FFFFFF" d="M114.585,226.562c-0.706,0-1.263,0.23-1.672,0.707c-0.408,0.469-0.613,1.108-0.613,1.931
				c0,0.841,0.197,1.491,0.591,1.948c0.394,0.459,0.956,0.688,1.685,0.688c0.448,0,0.959-0.081,1.534-0.24v0.653
				c-0.445,0.167-0.995,0.25-1.648,0.25c-0.946,0-1.676-0.287-2.191-0.86c-0.514-0.574-0.771-1.391-0.771-2.447
				c0-0.662,0.124-1.238,0.372-1.736c0.247-0.498,0.604-0.887,1.072-1.148c0.467-0.271,1.017-0.402,1.65-0.402
				c0.674,0,1.263,0.123,1.767,0.369l-0.316,0.643C115.558,226.678,115.071,226.562,114.585,226.562z"/>
			<path fill="#FFFFFF" d="M123.088,229.191c0,1.022-0.26,1.836-0.78,2.426c-0.52,0.589-1.243,0.883-2.168,0.883
				c-0.946,0-1.676-0.289-2.191-0.867c-0.514-0.578-0.771-1.396-0.771-2.451c0-1.045,0.258-1.854,0.773-2.432
				c0.516-0.576,1.248-0.863,2.197-0.863c0.923,0,1.644,0.293,2.162,0.879S123.088,228.16,123.088,229.191z M117.969,229.191
				c0,0.869,0.185,1.529,0.556,1.979c0.37,0.45,0.909,0.676,1.615,0.676c0.712,0,1.25-0.226,1.613-0.674
				c0.363-0.447,0.545-1.107,0.545-1.98c0-0.86-0.181-1.521-0.543-1.967c-0.362-0.445-0.897-0.67-1.606-0.67
				c-0.712,0-1.253,0.229-1.624,0.674C118.154,227.68,117.969,228.332,117.969,229.191z"/>
			<path fill="#FFFFFF" d="M129.54,232.412h-0.853l-3.511-5.393h-0.035c0.047,0.633,0.07,1.213,0.07,1.735v3.652h-0.69v-6.429h0.844
				l3.502,5.369h0.035c-0.006-0.078-0.019-0.334-0.04-0.764s-0.028-0.736-0.022-0.92v-3.688h0.699L129.54,232.412L129.54,232.412z"
				/>
			<path fill="#FFFFFF" d="M133.284,232.412h-0.747v-5.762h-2.035v-0.664h4.816v0.664h-2.035L133.284,232.412L133.284,232.412z"/>
			<path fill="#FFFFFF" d="M139.867,232.412h-3.582v-6.426h3.582v0.664h-2.834v2.07h2.663v0.654h-2.663v2.364h2.834V232.412z"/>
			<path fill="#FFFFFF" d="M146.309,232.412h-0.853l-3.511-5.393h-0.035c0.047,0.633,0.07,1.213,0.07,1.735v3.652h-0.69v-6.429
				h0.844l3.502,5.369h0.035c-0.006-0.078-0.019-0.334-0.04-0.764s-0.028-0.736-0.022-0.92v-3.688h0.699L146.309,232.412
				L146.309,232.412z"/>
			<path fill="#FFFFFF" d="M150.053,232.412h-0.747v-5.762h-2.035v-0.664h4.817v0.664h-2.035V232.412z"/>
		</g>
		<g id="main-bottom">
			<path fill="#FFFFFF" d="M102.344,268l-2.18-5.695h-0.035c0.041,0.451,0.062,0.987,0.062,1.608V268H99.5v-6.425h1.125l2.035,5.3
				h0.035l2.052-5.3h1.116V268h-0.747v-4.141c0-0.475,0.021-0.989,0.062-1.547h-0.035L102.946,268H102.344z"/>
			<path fill="#FFFFFF" d="M111.664,268l-0.799-2.043h-2.576l-0.79,2.043h-0.756l2.54-6.451h0.628l2.526,6.451H111.664z
				 M110.632,265.284l-0.747-1.991c-0.097-0.252-0.196-0.561-0.299-0.927c-0.064,0.28-0.157,0.591-0.277,0.927l-0.756,1.991H110.632
				z"/>
			<path fill="#FFFFFF" d="M113.32,268v-6.425h0.748V268H113.32z"/>
			<path fill="#FFFFFF" d="M120.85,268h-0.854l-3.511-5.393h-0.035c0.047,0.633,0.07,1.213,0.07,1.74V268h-0.69v-6.425h0.844
				l3.503,5.37h0.035c-0.006-0.079-0.02-0.334-0.04-0.764c-0.021-0.429-0.027-0.734-0.021-0.92v-3.688h0.699V268L120.85,268z"/>
			<path fill="#FFFFFF" d="M122.102,265.922v-0.668h2.158v0.668H122.102z"/>
			<path fill="#FFFFFF" d="M125.512,261.575h1.815c0.853,0,1.469,0.128,1.851,0.382c0.38,0.256,0.57,0.658,0.57,1.209
				c0,0.381-0.105,0.695-0.318,0.941c-0.212,0.248-0.522,0.408-0.93,0.481v0.044c0.977,0.167,1.464,0.68,1.464,1.538
				c0,0.574-0.194,1.022-0.582,1.345c-0.389,0.322-0.932,0.483-1.628,0.483h-2.242V261.575L125.512,261.575z M126.26,264.326h1.23
				c0.527,0,0.906-0.082,1.138-0.248s0.347-0.445,0.347-0.838c0-0.359-0.129-0.619-0.387-0.779c-0.258-0.16-0.668-0.24-1.23-0.24
				h-1.098V264.326z M126.26,264.959v2.404h1.34c0.519,0,0.909-0.102,1.171-0.303c0.263-0.199,0.394-0.515,0.394-0.941
				c0-0.398-0.134-0.691-0.402-0.879c-0.268-0.188-0.676-0.281-1.224-0.281H126.26z"/>
			<path fill="#FFFFFF" d="M136.92,264.779c0,1.027-0.26,1.836-0.78,2.426c-0.52,0.588-1.243,0.883-2.168,0.883
				c-0.947,0-1.677-0.289-2.191-0.868c-0.514-0.577-0.771-1.396-0.771-2.45c0-1.045,0.258-1.855,0.773-2.432
				c0.516-0.576,1.248-0.863,2.197-0.863c0.924,0,1.645,0.293,2.162,0.879C136.661,262.939,136.92,263.748,136.92,264.779z
				 M131.8,264.779c0,0.869,0.186,1.529,0.557,1.979c0.37,0.45,0.908,0.676,1.615,0.676c0.711,0,1.249-0.226,1.612-0.674
				c0.363-0.447,0.545-1.107,0.545-1.98c0-0.865-0.181-1.521-0.543-1.967c-0.361-0.447-0.897-0.67-1.606-0.67
				c-0.711,0-1.253,0.225-1.623,0.674C131.985,263.268,131.8,263.92,131.8,264.779z"/>
			<path fill="#FFFFFF" d="M140.33,268h-0.748v-5.762h-2.034v-0.663h4.816v0.663h-2.034V268z"/>
			<path fill="#FFFFFF" d="M145.31,268h-0.748v-5.762h-2.034v-0.663h4.816v0.663h-2.034V268z"/>
			<path fill="#FFFFFF" d="M153.888,264.779c0,1.027-0.26,1.836-0.78,2.426c-0.52,0.588-1.243,0.883-2.168,0.883
				c-0.947,0-1.677-0.289-2.191-0.868c-0.514-0.577-0.771-1.396-0.771-2.45c0-1.045,0.258-1.855,0.773-2.432
				c0.516-0.576,1.248-0.863,2.197-0.863c0.924,0,1.645,0.293,2.162,0.879C153.629,262.939,153.888,263.748,153.888,264.779z
				 M148.768,264.779c0,0.869,0.186,1.529,0.557,1.979c0.37,0.45,0.908,0.676,1.615,0.676c0.711,0,1.249-0.226,1.612-0.674
				c0.363-0.447,0.545-1.107,0.545-1.98c0-0.865-0.181-1.521-0.543-1.967c-0.361-0.447-0.897-0.67-1.606-0.67
				c-0.711,0-1.253,0.225-1.623,0.674C148.953,263.268,148.768,263.92,148.768,264.779z"/>
			<path fill="#FFFFFF" d="M158.163,268l-2.18-5.695h-0.035c0.041,0.451,0.062,0.987,0.062,1.608V268h-0.69v-6.425h1.125l2.035,5.3
				h0.035l2.053-5.3h1.115V268h-0.746v-4.141c0-0.475,0.02-0.989,0.061-1.547h-0.035L158.765,268H158.163z"/>
		</g>
		<g id="bottom-a_1_">
			<path fill="#FFFFFF" d="M107.858,288.575h1.815c0.853,0,1.469,0.128,1.85,0.382c0.381,0.256,0.571,0.658,0.571,1.209
				c0,0.381-0.106,0.695-0.319,0.941c-0.212,0.248-0.522,0.408-0.929,0.479v0.044c0.976,0.167,1.463,0.683,1.463,1.538
				c0,0.574-0.194,1.021-0.582,1.348c-0.389,0.319-0.931,0.48-1.628,0.48h-2.241V288.575z M108.605,291.326h1.23
				c0.527,0,0.907-0.082,1.138-0.248s0.347-0.445,0.347-0.838c0-0.359-0.129-0.619-0.387-0.779c-0.258-0.16-0.668-0.24-1.23-0.24
				h-1.099L108.605,291.326L108.605,291.326z M108.605,291.959v2.404h1.34c0.519,0,0.909-0.104,1.171-0.303
				c0.262-0.199,0.394-0.52,0.394-0.941c0-0.398-0.134-0.691-0.402-0.879c-0.268-0.188-0.676-0.281-1.224-0.281H108.605
				L108.605,291.959z"/>
			<path fill="#FFFFFF" d="M119.267,291.779c0,1.027-0.26,1.836-0.78,2.426c-0.52,0.588-1.243,0.883-2.168,0.883
				c-0.946,0-1.676-0.289-2.191-0.867c-0.514-0.578-0.771-1.396-0.771-2.451c0-1.045,0.258-1.854,0.773-2.432
				c0.516-0.576,1.248-0.863,2.197-0.863c0.923,0,1.644,0.293,2.162,0.879C119.007,289.939,119.267,290.748,119.267,291.779z
				 M114.147,291.779c0,0.869,0.185,1.529,0.556,1.979c0.37,0.45,0.909,0.676,1.615,0.676c0.712,0,1.25-0.226,1.613-0.674
				c0.363-0.447,0.545-1.107,0.545-1.979c0-0.865-0.181-1.521-0.543-1.969c-0.362-0.445-0.897-0.67-1.606-0.67
				c-0.712,0-1.253,0.227-1.624,0.674C114.332,290.268,114.147,290.92,114.147,291.779z"/>
			<path fill="#FFFFFF" d="M122.677,295h-0.747v-5.762h-2.035v-0.663h4.816v0.663h-2.035L122.677,295L122.677,295z"/>
			<path fill="#FFFFFF" d="M127.656,295h-0.747v-5.762h-2.035v-0.663h4.816v0.663h-2.035L127.656,295L127.656,295z"/>
			<path fill="#FFFFFF" d="M136.234,291.779c0,1.027-0.26,1.836-0.78,2.426c-0.52,0.588-1.243,0.883-2.168,0.883
				c-0.946,0-1.676-0.289-2.191-0.867c-0.514-0.578-0.771-1.396-0.771-2.451c0-1.045,0.258-1.854,0.773-2.432
				c0.516-0.576,1.248-0.863,2.197-0.863c0.923,0,1.644,0.293,2.162,0.879S136.234,290.748,136.234,291.779z M131.114,291.779
				c0,0.869,0.185,1.529,0.556,1.979c0.37,0.45,0.909,0.676,1.615,0.676c0.712,0,1.25-0.226,1.613-0.674
				c0.363-0.447,0.545-1.107,0.545-1.979c0-0.865-0.181-1.521-0.543-1.969c-0.362-0.445-0.897-0.67-1.606-0.67
				c-0.712,0-1.253,0.227-1.624,0.674C131.299,290.268,131.114,290.92,131.114,291.779z"/>
			<path fill="#FFFFFF" d="M140.51,295l-2.18-5.695h-0.035c0.041,0.451,0.062,0.987,0.062,1.608V295h-0.69v-6.425h1.125l2.035,5.3
				h0.035l2.052-5.3h1.116V295h-0.747v-4.141c0-0.479,0.021-0.989,0.062-1.547h-0.035L141.112,295H140.51z"/>
			<path fill="#FFFFFF" d="M145.278,292.922v-0.668h2.158v0.668H145.278z"/>
			<path fill="#FFFFFF" d="M152.727,295l-0.8-2.043h-2.575L148.561,295h-0.756l2.54-6.451h0.628L153.5,295H152.727z
				 M151.694,292.284l-0.747-1.991c-0.097-0.252-0.196-0.561-0.299-0.927c-0.064,0.28-0.157,0.591-0.277,0.927l-0.756,1.991H151.694
				z"/>
		</g>
		<g id="bottom-b_1_">
			<path fill="#FFFFFF" d="M107.791,315.575h1.815c0.853,0,1.469,0.128,1.85,0.382c0.381,0.256,0.571,0.658,0.571,1.209
				c0,0.381-0.106,0.695-0.319,0.941c-0.212,0.248-0.522,0.407-0.929,0.479v0.044c0.976,0.167,1.463,0.684,1.463,1.538
				c0,0.574-0.194,1.021-0.582,1.348c-0.389,0.319-0.931,0.48-1.628,0.48h-2.241V315.575z M108.538,318.326h1.23
				c0.527,0,0.907-0.082,1.138-0.248c0.231-0.166,0.347-0.445,0.347-0.838c0-0.359-0.129-0.619-0.387-0.779
				c-0.258-0.16-0.668-0.24-1.23-0.24h-1.099L108.538,318.326L108.538,318.326z M108.538,318.959v2.404h1.34
				c0.519,0,0.909-0.103,1.171-0.304c0.262-0.198,0.394-0.519,0.394-0.94c0-0.398-0.134-0.691-0.402-0.879
				c-0.268-0.188-0.676-0.281-1.224-0.281H108.538L108.538,318.959z"/>
			<path fill="#FFFFFF" d="M119.199,318.779c0,1.026-0.26,1.836-0.78,2.426c-0.52,0.588-1.243,0.883-2.168,0.883
				c-0.946,0-1.676-0.289-2.191-0.868c-0.514-0.577-0.771-1.396-0.771-2.45c0-1.045,0.258-1.854,0.773-2.432
				c0.516-0.576,1.248-0.863,2.197-0.863c0.923,0,1.644,0.293,2.162,0.879S119.199,317.748,119.199,318.779z M114.079,318.779
				c0,0.869,0.185,1.528,0.556,1.979c0.37,0.45,0.909,0.676,1.615,0.676c0.712,0,1.25-0.226,1.613-0.674
				c0.363-0.447,0.545-1.106,0.545-1.979c0-0.861-0.181-1.521-0.543-1.968c-0.362-0.442-0.897-0.67-1.606-0.67
				c-0.712,0-1.253,0.229-1.624,0.675C114.264,317.268,114.079,317.92,114.079,318.779z"/>
			<path fill="#FFFFFF" d="M122.609,322h-0.747v-5.762h-2.035v-0.663h4.816v0.663h-2.035L122.609,322L122.609,322z"/>
			<path fill="#FFFFFF" d="M127.588,322h-0.747v-5.762h-2.035v-0.663h4.816v0.663h-2.035L127.588,322L127.588,322z"/>
			<path fill="#FFFFFF" d="M136.166,318.779c0,1.026-0.26,1.836-0.78,2.426c-0.52,0.588-1.243,0.883-2.168,0.883
				c-0.946,0-1.676-0.289-2.191-0.868c-0.514-0.577-0.771-1.396-0.771-2.45c0-1.045,0.258-1.854,0.773-2.432
				c0.516-0.576,1.248-0.863,2.197-0.863c0.923,0,1.644,0.293,2.162,0.879S136.166,317.748,136.166,318.779z M131.046,318.779
				c0,0.869,0.185,1.528,0.556,1.979c0.37,0.45,0.909,0.676,1.615,0.676c0.712,0,1.25-0.226,1.613-0.674
				c0.363-0.447,0.545-1.106,0.545-1.979c0-0.861-0.181-1.521-0.543-1.968c-0.362-0.442-0.897-0.67-1.606-0.67
				c-0.712,0-1.253,0.229-1.624,0.675C131.231,317.268,131.046,317.92,131.046,318.779z"/>
			<path fill="#FFFFFF" d="M140.442,322l-2.18-5.695h-0.035c0.041,0.451,0.062,0.987,0.062,1.608V322h-0.69v-6.425h1.125l2.035,5.3
				h0.035l2.052-5.3h1.116V322h-0.747v-4.141c0-0.479,0.021-0.989,0.062-1.547h-0.035L141.044,322H140.442z"/>
			<path fill="#FFFFFF" d="M145.21,319.922v-0.668h2.158v0.668H145.21z"/>
			<path fill="#FFFFFF" d="M148.62,315.575h1.815c0.853,0,1.469,0.128,1.85,0.382c0.381,0.256,0.571,0.658,0.571,1.209
				c0,0.381-0.106,0.695-0.319,0.941c-0.212,0.248-0.522,0.407-0.929,0.479v0.044c0.976,0.167,1.463,0.684,1.463,1.538
				c0,0.574-0.194,1.021-0.582,1.348c-0.389,0.319-0.931,0.48-1.628,0.48h-2.241V315.575z M149.367,318.326h1.23
				c0.527,0,0.907-0.082,1.138-0.248s0.347-0.445,0.347-0.838c0-0.359-0.129-0.619-0.387-0.779c-0.258-0.16-0.668-0.24-1.23-0.24
				h-1.099L149.367,318.326L149.367,318.326z M149.367,318.959v2.404h1.34c0.519,0,0.909-0.103,1.171-0.304
				c0.262-0.198,0.394-0.519,0.394-0.94c0-0.398-0.134-0.691-0.402-0.879c-0.268-0.188-0.676-0.281-1.224-0.281H149.367
				L149.367,318.959z"/>
		</g>
		<g id="bottom-c_1_">
			<path fill="#FFFFFF" d="M107.5,340.575h1.815c0.853,0,1.469,0.128,1.85,0.382c0.381,0.256,0.571,0.658,0.571,1.209
				c0,0.381-0.106,0.695-0.319,0.942c-0.212,0.248-0.522,0.407-0.929,0.48v0.044c0.976,0.167,1.463,0.68,1.463,1.538
				c0,0.574-0.194,1.022-0.582,1.345c-0.389,0.322-0.931,0.483-1.628,0.483H107.5V340.575z M108.248,343.326h1.23
				c0.527,0,0.907-0.082,1.138-0.248c0.231-0.166,0.347-0.445,0.347-0.838c0-0.359-0.129-0.619-0.387-0.779
				c-0.258-0.16-0.668-0.24-1.23-0.24h-1.099L108.248,343.326L108.248,343.326z M108.248,343.959v2.404h1.34
				c0.519,0,0.909-0.102,1.171-0.303c0.262-0.199,0.394-0.515,0.394-0.941c0-0.398-0.134-0.691-0.402-0.879
				c-0.268-0.188-0.676-0.281-1.224-0.281H108.248z"/>
			<path fill="#FFFFFF" d="M118.908,343.779c0,1.026-0.26,1.836-0.779,2.426c-0.521,0.588-1.243,0.883-2.169,0.883
				c-0.946,0-1.676-0.289-2.191-0.868c-0.514-0.578-0.771-1.396-0.771-2.45c0-1.045,0.258-1.855,0.773-2.432
				c0.516-0.576,1.248-0.863,2.197-0.863c0.923,0,1.644,0.293,2.162,0.879C118.65,341.939,118.908,342.748,118.908,343.779z
				 M113.789,343.779c0,0.869,0.185,1.528,0.556,1.979c0.37,0.45,0.909,0.675,1.615,0.675c0.712,0,1.25-0.225,1.613-0.673
				c0.363-0.448,0.544-1.107,0.544-1.98c0-0.865-0.181-1.521-0.542-1.968c-0.361-0.446-0.897-0.67-1.606-0.67
				c-0.712,0-1.253,0.226-1.624,0.675C113.974,342.267,113.789,342.92,113.789,343.779z"/>
			<path fill="#FFFFFF" d="M122.319,347h-0.748v-5.762h-2.034v-0.663h4.816v0.663h-2.034V347z"/>
			<path fill="#FFFFFF" d="M127.299,347h-0.748v-5.762h-2.034v-0.663h4.816v0.663h-2.034V347z"/>
			<path fill="#FFFFFF" d="M135.876,343.779c0,1.026-0.26,1.836-0.78,2.426c-0.52,0.588-1.243,0.883-2.168,0.883
				c-0.947,0-1.677-0.289-2.191-0.868c-0.514-0.578-0.771-1.396-0.771-2.45c0-1.045,0.258-1.855,0.773-2.432
				c0.516-0.576,1.248-0.863,2.197-0.863c0.924,0,1.645,0.293,2.162,0.879C135.617,341.939,135.876,342.748,135.876,343.779z
				 M130.756,343.779c0,0.869,0.186,1.528,0.557,1.979c0.37,0.45,0.908,0.675,1.615,0.675c0.711,0,1.249-0.225,1.612-0.673
				c0.363-0.448,0.545-1.107,0.545-1.98c0-0.865-0.181-1.521-0.543-1.968c-0.361-0.446-0.897-0.67-1.606-0.67
				c-0.711,0-1.253,0.226-1.623,0.675C130.941,342.267,130.756,342.92,130.756,343.779z"/>
			<path fill="#FFFFFF" d="M140.152,347l-2.18-5.695h-0.035c0.041,0.451,0.062,0.987,0.062,1.608V347h-0.69v-6.425h1.125l2.035,5.3
				h0.035l2.053-5.3h1.115V347h-0.746v-4.14c0-0.476,0.02-0.99,0.061-1.548h-0.035L140.754,347H140.152z"/>
			<path fill="#FFFFFF" d="M144.92,344.922v-0.668h2.158v0.668H144.92z"/>
			<path fill="#FFFFFF" d="M151.082,341.15c-0.707,0-1.264,0.234-1.673,0.706c-0.408,0.47-0.612,1.113-0.612,1.931
				c0,0.842,0.196,1.491,0.591,1.949c0.394,0.459,0.956,0.688,1.685,0.688c0.449,0,0.96-0.08,1.534-0.241v0.655
				c-0.445,0.166-0.995,0.25-1.647,0.25c-0.947,0-1.677-0.287-2.191-0.861c-0.514-0.573-0.771-1.391-0.771-2.446
				c0-0.662,0.124-1.242,0.372-1.74c0.247-0.498,0.604-0.883,1.072-1.152c0.467-0.27,1.017-0.403,1.649-0.403
				c0.674,0,1.263,0.123,1.768,0.368l-0.316,0.644C152.054,341.266,151.567,341.15,151.082,341.15z"/>
		</g>
		<g id="bottom-d_1_">
			<path fill="#FFFFFF" d="M107.5,368.575h1.815c0.853,0,1.469,0.128,1.85,0.382c0.381,0.256,0.571,0.658,0.571,1.209
				c0,0.381-0.106,0.695-0.319,0.942c-0.212,0.248-0.522,0.407-0.929,0.48v0.044c0.976,0.167,1.463,0.68,1.463,1.538
				c0,0.574-0.194,1.022-0.582,1.345c-0.389,0.322-0.931,0.483-1.628,0.483H107.5V368.575z M108.248,371.326h1.23
				c0.527,0,0.907-0.082,1.138-0.248c0.231-0.166,0.347-0.445,0.347-0.838c0-0.359-0.129-0.619-0.387-0.779
				c-0.258-0.16-0.668-0.24-1.23-0.24h-1.099L108.248,371.326L108.248,371.326z M108.248,371.959v2.404h1.34
				c0.519,0,0.909-0.102,1.171-0.303c0.262-0.199,0.394-0.515,0.394-0.941c0-0.398-0.134-0.691-0.402-0.879
				c-0.268-0.188-0.676-0.281-1.224-0.281H108.248z"/>
			<path fill="#FFFFFF" d="M118.908,371.779c0,1.026-0.26,1.836-0.779,2.426c-0.521,0.588-1.243,0.883-2.169,0.883
				c-0.946,0-1.676-0.289-2.191-0.868c-0.514-0.578-0.771-1.396-0.771-2.45c0-1.045,0.258-1.855,0.773-2.432
				c0.516-0.576,1.248-0.863,2.197-0.863c0.923,0,1.644,0.293,2.162,0.879C118.65,369.939,118.908,370.748,118.908,371.779z
				 M113.789,371.779c0,0.869,0.185,1.528,0.556,1.979c0.37,0.45,0.909,0.675,1.615,0.675c0.712,0,1.25-0.225,1.613-0.673
				c0.363-0.448,0.544-1.107,0.544-1.98c0-0.865-0.181-1.521-0.542-1.968c-0.361-0.446-0.897-0.67-1.606-0.67
				c-0.712,0-1.253,0.226-1.624,0.675C113.974,370.267,113.789,370.92,113.789,371.779z"/>
			<path fill="#FFFFFF" d="M122.319,375h-0.748v-5.762h-2.034v-0.663h4.816v0.663h-2.034V375z"/>
			<path fill="#FFFFFF" d="M127.299,375h-0.748v-5.762h-2.034v-0.663h4.816v0.663h-2.034V375z"/>
			<path fill="#FFFFFF" d="M135.876,371.779c0,1.026-0.26,1.836-0.78,2.426c-0.52,0.588-1.243,0.883-2.168,0.883
				c-0.947,0-1.677-0.289-2.191-0.868c-0.514-0.578-0.771-1.396-0.771-2.45c0-1.045,0.258-1.855,0.773-2.432
				c0.516-0.576,1.248-0.863,2.197-0.863c0.924,0,1.645,0.293,2.162,0.879C135.617,369.939,135.876,370.748,135.876,371.779z
				 M130.756,371.779c0,0.869,0.186,1.528,0.557,1.979c0.37,0.45,0.908,0.675,1.615,0.675c0.711,0,1.249-0.225,1.612-0.673
				c0.363-0.448,0.545-1.107,0.545-1.98c0-0.865-0.181-1.521-0.543-1.968c-0.361-0.446-0.897-0.67-1.606-0.67
				c-0.711,0-1.253,0.226-1.623,0.675C130.941,370.267,130.756,370.92,130.756,371.779z"/>
			<path fill="#FFFFFF" d="M140.152,375l-2.18-5.695h-0.035c0.041,0.451,0.062,0.987,0.062,1.608V375h-0.69v-6.425h1.125l2.035,5.3
				h0.035l2.053-5.3h1.115V375h-0.746v-4.14c0-0.476,0.02-0.99,0.061-1.548h-0.035L140.754,375H140.152z"/>
			<path fill="#FFFFFF" d="M144.92,372.922v-0.668h2.158v0.668H144.92z"/>
			<path fill="#FFFFFF" d="M153.459,371.727c0,1.062-0.288,1.871-0.863,2.433c-0.576,0.562-1.404,0.842-2.485,0.842h-1.78v-6.425
				h1.969c0.999,0,1.775,0.275,2.33,0.831C153.182,369.959,153.459,370.732,153.459,371.727z M152.668,371.752
				c0-0.838-0.21-1.469-0.631-1.894c-0.42-0.426-1.045-0.639-1.874-0.639h-1.085v5.133h0.909c0.891,0,1.56-0.219,2.009-0.655
				C152.443,373.26,152.668,372.611,152.668,371.752z"/>
		</g>
		<g id="footer_1_">
			<path fill="#FFFFFF" d="M114.763,400h-0.747v-6.425h3.582v0.663h-2.834v2.352h2.663v0.664h-2.663L114.763,400L114.763,400z"/>
			<path fill="#FFFFFF" d="M124.237,396.779c0,1.026-0.26,1.836-0.78,2.426c-0.52,0.588-1.243,0.883-2.168,0.883
				c-0.946,0-1.676-0.289-2.191-0.868c-0.514-0.577-0.771-1.396-0.771-2.45c0-1.045,0.258-1.854,0.773-2.432
				c0.516-0.576,1.248-0.863,2.197-0.863c0.923,0,1.644,0.293,2.162,0.879S124.237,395.748,124.237,396.779z M119.118,396.779
				c0,0.869,0.185,1.528,0.556,1.979c0.37,0.45,0.909,0.676,1.615,0.676c0.712,0,1.25-0.226,1.613-0.674
				c0.363-0.447,0.545-1.106,0.545-1.979c0-0.861-0.181-1.521-0.543-1.968c-0.362-0.442-0.897-0.67-1.606-0.67
				c-0.712,0-1.253,0.229-1.624,0.675C119.303,395.268,119.118,395.92,119.118,396.779z"/>
			<path fill="#FFFFFF" d="M131.247,396.779c0,1.026-0.26,1.836-0.78,2.426c-0.52,0.588-1.243,0.883-2.168,0.883
				c-0.946,0-1.676-0.289-2.191-0.868c-0.514-0.577-0.771-1.396-0.771-2.45c0-1.045,0.258-1.854,0.773-2.432
				c0.516-0.576,1.248-0.863,2.197-0.863c0.923,0,1.644,0.293,2.162,0.879C130.987,394.939,131.247,395.748,131.247,396.779z
				 M126.127,396.779c0,0.869,0.185,1.528,0.556,1.979c0.37,0.45,0.909,0.676,1.615,0.676c0.712,0,1.25-0.226,1.613-0.674
				c0.363-0.447,0.545-1.106,0.545-1.979c0-0.861-0.181-1.521-0.543-1.968c-0.362-0.442-0.897-0.67-1.606-0.67
				c-0.712,0-1.253,0.229-1.624,0.675C126.312,395.268,126.127,395.92,126.127,396.779z"/>
			<path fill="#FFFFFF" d="M134.657,400h-0.747v-5.762h-2.035v-0.663h4.816v0.663h-2.035V400H134.657z"/>
			<path fill="#FFFFFF" d="M141.24,400h-3.582v-6.425h3.582v0.663h-2.834v2.069h2.663v0.654h-2.663v2.364h2.834V400z"/>
			<path fill="#FFFFFF" d="M143.411,397.328V400h-0.747v-6.425h1.762c0.788,0,1.37,0.15,1.747,0.452
				c0.376,0.303,0.564,0.756,0.564,1.362c0,0.851-0.431,1.425-1.292,1.724L147.19,400h-0.883l-1.556-2.672H143.411z
				 M143.411,396.688h1.024c0.527,0,0.914-0.104,1.16-0.312c0.246-0.209,0.369-0.521,0.369-0.938c0-0.429-0.125-0.729-0.376-0.918
				c-0.25-0.188-0.652-0.28-1.206-0.28h-0.971V396.688L143.411,396.688z"/>
		</g>
		<g id="sidebar-a">
			<path fill="#FFFFFF" d="M14.703,247.457c0.565,0,1.006,0.205,1.323,0.615s0.474,0.967,0.474,1.67
				c0,0.762-0.098,1.348-0.294,1.758h-0.721c0.111-0.264,0.199-0.551,0.264-0.861c0.065-0.31,0.097-0.617,0.097-0.923
				c0-0.498-0.094-0.873-0.284-1.125c-0.188-0.252-0.452-0.378-0.789-0.378c-0.223,0-0.405,0.045-0.547,0.135
				s-0.273,0.238-0.393,0.447c-0.12,0.21-0.256,0.528-0.409,0.956c-0.214,0.599-0.467,1.024-0.76,1.281
				c-0.293,0.256-0.675,0.384-1.147,0.384c-0.495,0-0.889-0.186-1.182-0.559c-0.293-0.371-0.439-0.863-0.439-1.479
				c0-0.64,0.117-1.229,0.352-1.762l0.65,0.229c-0.223,0.528-0.334,1.047-0.334,1.547c0,0.396,0.085,0.705,0.255,0.931
				c0.17,0.222,0.406,0.334,0.708,0.334c0.223,0,0.405-0.041,0.547-0.123c0.143-0.082,0.272-0.224,0.392-0.416
				c0.118-0.194,0.25-0.493,0.393-0.896c0.24-0.677,0.498-1.14,0.773-1.394C13.906,247.584,14.263,247.457,14.703,247.457z"/>
			<path fill="#FFFFFF" d="M16.412,246.143H9.987v-0.746h6.425V246.143z"/>
			<path fill="#FFFFFF" d="M13.138,238.505c1.061,0,1.872,0.288,2.432,0.863c0.562,0.575,0.842,1.403,0.842,2.485v1.774H9.987
				v-1.969c0-0.999,0.277-1.771,0.831-2.329C11.372,238.781,12.145,238.505,13.138,238.505z M13.165,239.296
				c-0.838,0-1.469,0.21-1.894,0.631s-0.637,1.046-0.637,1.874v1.086h5.133v-0.91c0-0.892-0.219-1.561-0.657-2.009
				S14.023,239.296,13.165,239.296z"/>
			<path fill="#FFFFFF" d="M16.412,233.491v3.582H9.987v-3.582h0.664v2.834h2.07v-2.663h0.659v2.663h2.364v-2.834H16.412z"/>
			<path fill="#FFFFFF" d="M9.987,232.066v-1.814c0-0.854,0.127-1.469,0.382-1.85s0.658-0.571,1.208-0.571
				c0.381,0,0.695,0.106,0.942,0.319c0.248,0.211,0.408,0.521,0.481,0.929h0.044c0.167-0.976,0.68-1.463,1.538-1.463
				c0.574,0,1.022,0.194,1.345,0.582c0.322,0.389,0.483,0.931,0.483,1.628v2.24H9.987L9.987,232.066z M12.738,231.32v-1.23
				c0-0.527-0.083-0.906-0.248-1.138c-0.165-0.231-0.445-0.347-0.837-0.347c-0.36,0-0.62,0.129-0.78,0.387s-0.24,0.668-0.24,1.23
				v1.098H12.738L12.738,231.32z M13.371,231.32h2.404v-1.34c0-0.521-0.1-0.91-0.301-1.172c-0.2-0.267-0.515-0.396-0.942-0.396
				c-0.398,0-0.691,0.134-0.879,0.398c-0.188,0.271-0.281,0.68-0.281,1.228L13.371,231.32L13.371,231.32z"/>
			<path fill="#FFFFFF" d="M16.412,222.197l-2.043,0.8v2.575l2.043,0.791v0.756l-6.451-2.54v-0.628l6.451-2.527V222.197z
				 M13.696,223.23l-1.991,0.746c-0.252,0.098-0.561,0.191-0.927,0.299c0.281,0.062,0.59,0.158,0.927,0.272l1.991,0.761V223.23z"/>
			<path fill="#FFFFFF" d="M13.74,219.793h2.672v0.747H9.987v-1.763c0-0.787,0.151-1.369,0.453-1.746
				c0.302-0.377,0.756-0.564,1.362-0.564c0.85,0,1.424,0.432,1.723,1.292l2.887-1.745v0.883l-2.672,1.562V219.793z M13.099,219.793
				v-1.023c0-0.522-0.104-0.914-0.314-1.16c-0.209-0.241-0.523-0.364-0.942-0.364c-0.425,0-0.731,0.125-0.918,0.376
				c-0.188,0.25-0.281,0.646-0.281,1.206v0.971L13.099,219.793L13.099,219.793z"/>
			<path fill="#FFFFFF" d="M14.333,215.491h-0.668v-2.158h0.668V215.491z"/>
			<path fill="#FFFFFF" d="M16.412,208.042l-2.043,0.8v2.575l2.043,0.791v0.756l-6.451-2.54v-0.628l6.451-2.526V208.042z
				 M13.696,209.075l-1.991,0.747c-0.252,0.097-0.561,0.195-0.927,0.299c0.281,0.064,0.59,0.156,0.927,0.277l1.991,0.756V209.075z"
				/>
		</g>
		<g id="sidebar-b">
			<path fill="#FFFFFF" d="M46.307,247.328c0.565,0,1.006,0.205,1.323,0.615s0.474,0.967,0.474,1.67
				c0,0.762-0.098,1.348-0.294,1.758h-0.721c0.111-0.264,0.199-0.551,0.264-0.861c0.065-0.31,0.097-0.617,0.097-0.923
				c0-0.498-0.094-0.873-0.284-1.125c-0.188-0.252-0.452-0.378-0.789-0.378c-0.223,0-0.405,0.045-0.547,0.134
				c-0.142,0.091-0.273,0.239-0.393,0.448c-0.12,0.21-0.256,0.527-0.409,0.956c-0.214,0.599-0.467,1.024-0.76,1.28
				c-0.293,0.257-0.675,0.385-1.147,0.385c-0.495,0-0.889-0.186-1.182-0.559c-0.293-0.371-0.439-0.863-0.439-1.479
				c0-0.642,0.117-1.229,0.352-1.765l0.65,0.23c-0.223,0.53-0.334,1.049-0.334,1.549c0,0.396,0.085,0.703,0.255,0.928
				s0.406,0.334,0.708,0.334c0.223,0,0.405-0.041,0.547-0.121c0.143-0.082,0.272-0.223,0.392-0.416
				c0.118-0.193,0.25-0.492,0.393-0.896c0.24-0.674,0.498-1.137,0.773-1.391C45.51,247.455,45.867,247.328,46.307,247.328z"/>
			<path fill="#FFFFFF" d="M48.016,246.014h-6.425v-0.746h6.425V246.014z"/>
			<path fill="#FFFFFF" d="M44.742,238.376c1.061,0,1.872,0.288,2.432,0.863c0.562,0.575,0.842,1.403,0.842,2.485v1.774h-6.425
				v-1.97c0-0.998,0.277-1.774,0.831-2.328C42.976,238.652,43.749,238.376,44.742,238.376z M44.769,239.167
				c-0.838,0-1.469,0.21-1.894,0.631s-0.637,1.045-0.637,1.874v1.085h5.133v-0.909c0-0.892-0.219-1.561-0.657-2.009
				S45.627,239.167,44.769,239.167z"/>
			<path fill="#FFFFFF" d="M48.016,233.361v3.582h-6.425v-3.582h0.664v2.834h2.07v-2.662h0.659v2.662h2.364v-2.834H48.016z"/>
			<path fill="#FFFFFF" d="M41.591,231.938v-1.812c0-0.854,0.127-1.469,0.382-1.853c0.255-0.381,0.658-0.568,1.208-0.568
				c0.381,0,0.695,0.104,0.942,0.316c0.248,0.211,0.408,0.521,0.481,0.932h0.044c0.167-0.979,0.68-1.467,1.538-1.467
				c0.574,0,1.022,0.195,1.345,0.582c0.322,0.393,0.483,0.935,0.483,1.632v2.237H41.591L41.591,231.938z M44.342,231.191v-1.23
				c0-0.527-0.083-0.906-0.248-1.138c-0.165-0.231-0.445-0.347-0.837-0.347c-0.36,0-0.62,0.129-0.78,0.387s-0.24,0.668-0.24,1.229
				v1.1H44.342L44.342,231.191z M44.975,231.191h2.404v-1.34c0-0.521-0.1-0.91-0.301-1.172c-0.2-0.267-0.515-0.396-0.942-0.396
				c-0.398,0-0.691,0.134-0.879,0.398c-0.188,0.271-0.281,0.676-0.281,1.228L44.975,231.191L44.975,231.191z"/>
			<path fill="#FFFFFF" d="M48.016,222.068l-2.043,0.8v2.575l2.043,0.791v0.756l-6.451-2.54v-0.628l6.451-2.527V222.068z
				 M45.3,223.102l-1.991,0.746c-0.252,0.098-0.561,0.196-0.927,0.299c0.281,0.064,0.59,0.158,0.927,0.277l1.991,0.756V223.102z"/>
			<path fill="#FFFFFF" d="M45.344,219.664h2.672v0.747h-6.425v-1.763c0-0.787,0.151-1.369,0.453-1.746
				c0.302-0.377,0.756-0.564,1.362-0.564c0.85,0,1.424,0.432,1.723,1.292l2.887-1.745v0.883l-2.672,1.562V219.664z M44.703,219.664
				v-1.023c0-0.522-0.104-0.914-0.314-1.16c-0.209-0.246-0.523-0.369-0.942-0.369c-0.425,0-0.731,0.125-0.918,0.375
				c-0.188,0.25-0.281,0.652-0.281,1.207v0.976L44.703,219.664L44.703,219.664z"/>
			<path fill="#FFFFFF" d="M45.937,215.361h-0.668v-2.157h0.668V215.361z"/>
			<path fill="#FFFFFF" d="M41.591,211.952v-1.815c0-0.853,0.127-1.469,0.382-1.85c0.255-0.381,0.658-0.571,1.208-0.571
				c0.381,0,0.695,0.106,0.942,0.319c0.248,0.212,0.408,0.521,0.481,0.929h0.044c0.167-0.976,0.68-1.463,1.538-1.463
				c0.574,0,1.022,0.194,1.345,0.582c0.322,0.39,0.483,0.931,0.483,1.628v2.241H41.591z M44.342,211.205v-1.23
				c0-0.524-0.083-0.906-0.248-1.138c-0.165-0.231-0.445-0.347-0.837-0.347c-0.36,0-0.62,0.129-0.78,0.387s-0.24,0.668-0.24,1.23
				v1.099L44.342,211.205L44.342,211.205z M44.975,211.205h2.404v-1.34c0-0.52-0.1-0.909-0.301-1.172
				c-0.2-0.262-0.515-0.395-0.942-0.395c-0.398,0-0.691,0.135-0.879,0.402c-0.188,0.267-0.281,0.676-0.281,1.224L44.975,211.205
				L44.975,211.205z"/>
		</g>
		<g id="sidebar-a_1_">
			<path fill="#FFFFFF" d="M218.308,248.457c0.565,0,1.006,0.205,1.323,0.615c0.317,0.41,0.475,0.967,0.475,1.67
				c0,0.762-0.098,1.348-0.294,1.758h-0.721c0.111-0.264,0.199-0.551,0.264-0.861c0.065-0.31,0.097-0.617,0.097-0.923
				c0-0.498-0.094-0.873-0.284-1.125c-0.188-0.252-0.452-0.378-0.789-0.378c-0.223,0-0.405,0.045-0.547,0.135
				s-0.273,0.238-0.393,0.447c-0.12,0.21-0.256,0.528-0.409,0.956c-0.214,0.599-0.467,1.024-0.76,1.281
				c-0.293,0.256-0.675,0.384-1.147,0.384c-0.495,0-0.889-0.186-1.182-0.559c-0.293-0.371-0.441-0.863-0.441-1.479
				c0-0.64,0.117-1.229,0.352-1.762l0.65,0.229c-0.223,0.528-0.334,1.045-0.334,1.547c0,0.396,0.085,0.705,0.255,0.931
				c0.17,0.222,0.406,0.334,0.708,0.334c0.223,0,0.405-0.041,0.547-0.123c0.143-0.082,0.272-0.224,0.392-0.416
				c0.118-0.194,0.25-0.493,0.393-0.896c0.24-0.676,0.498-1.14,0.773-1.394C217.511,248.584,217.868,248.457,218.308,248.457z"/>
			<path fill="#FFFFFF" d="M220.017,247.143h-6.425v-0.746h6.425V247.143z"/>
			<path fill="#FFFFFF" d="M216.743,239.505c1.061,0,1.872,0.288,2.432,0.863c0.562,0.575,0.842,1.403,0.842,2.485v1.774h-6.425
				v-1.969c0-0.999,0.277-1.771,0.831-2.329C214.977,239.781,215.75,239.505,216.743,239.505z M216.77,240.296
				c-0.838,0-1.469,0.21-1.894,0.631s-0.637,1.046-0.637,1.874v1.086h5.133v-0.91c0-0.892-0.219-1.561-0.657-2.009
				S217.628,240.296,216.77,240.296z"/>
			<path fill="#FFFFFF" d="M220.017,234.491v3.582h-6.425v-3.582h0.664v2.834h2.07v-2.663h0.659v2.663h2.364v-2.834H220.017z"/>
			<path fill="#FFFFFF" d="M213.592,233.066v-1.814c0-0.854,0.127-1.469,0.382-1.85c0.255-0.381,0.658-0.571,1.208-0.571
				c0.381,0,0.695,0.106,0.942,0.319c0.248,0.211,0.408,0.521,0.481,0.929h0.044c0.167-0.976,0.68-1.463,1.538-1.463
				c0.574,0,1.022,0.194,1.345,0.582c0.322,0.389,0.483,0.931,0.483,1.628v2.24H213.592L213.592,233.066z M216.343,232.32v-1.23
				c0-0.527-0.083-0.906-0.248-1.138c-0.165-0.231-0.445-0.347-0.837-0.347c-0.36,0-0.62,0.129-0.78,0.387s-0.24,0.668-0.24,1.23
				v1.098H216.343L216.343,232.32z M216.976,232.32h2.404v-1.34c0-0.521-0.1-0.91-0.301-1.172c-0.2-0.267-0.515-0.396-0.942-0.396
				c-0.398,0-0.691,0.134-0.879,0.398c-0.188,0.271-0.281,0.68-0.281,1.228L216.976,232.32L216.976,232.32z"/>
			<path fill="#FFFFFF" d="M220.017,223.197l-2.043,0.8v2.575l2.043,0.791v0.756l-6.451-2.54v-0.628l6.451-2.527V223.197z
				 M217.301,224.23l-1.991,0.746c-0.252,0.098-0.561,0.191-0.927,0.299c0.281,0.062,0.59,0.158,0.927,0.272l1.991,0.761V224.23z"/>
			<path fill="#FFFFFF" d="M217.345,220.793h2.672v0.747h-6.425v-1.763c0-0.787,0.151-1.369,0.453-1.746
				c0.302-0.377,0.756-0.564,1.362-0.564c0.85,0,1.424,0.432,1.723,1.292l2.887-1.745v0.883l-2.672,1.562V220.793z M216.704,220.793
				v-1.023c0-0.522-0.104-0.914-0.314-1.16c-0.209-0.241-0.523-0.364-0.942-0.364c-0.425,0-0.731,0.125-0.918,0.376
				c-0.188,0.25-0.281,0.646-0.281,1.206v0.971L216.704,220.793L216.704,220.793z"/>
			<path fill="#FFFFFF" d="M217.938,216.491h-0.668v-2.158h0.668V216.491z"/>
			<path fill="#FFFFFF" d="M220.017,209.042l-2.043,0.8v2.575l2.043,0.791v0.756l-6.451-2.54v-0.628l6.451-2.526V209.042z
				 M217.301,210.075l-1.991,0.747c-0.252,0.097-0.561,0.195-0.927,0.299c0.281,0.064,0.59,0.156,0.927,0.277l1.991,0.756V210.075z"
				/>
		</g>
		<g id="sidebar-b_1_">
			<path fill="#FFFFFF" d="M249.702,248.327c0.565,0,1.007,0.205,1.323,0.614c0.315,0.41,0.475,0.968,0.475,1.67
				c0,0.763-0.1,1.349-0.295,1.759h-0.721c0.111-0.265,0.199-0.552,0.264-0.861c0.064-0.309,0.098-0.616,0.098-0.923
				c0-0.498-0.096-0.873-0.285-1.125c-0.188-0.252-0.451-0.378-0.787-0.378c-0.224,0-0.405,0.045-0.549,0.135
				c-0.141,0.091-0.271,0.238-0.393,0.447c-0.12,0.21-0.256,0.528-0.408,0.956c-0.215,0.6-0.468,1.023-0.761,1.281
				c-0.293,0.256-0.675,0.384-1.147,0.384c-0.494,0-0.889-0.187-1.182-0.56c-0.293-0.371-0.439-0.863-0.439-1.479
				c0-0.644,0.117-1.229,0.352-1.765l0.65,0.232c-0.224,0.528-0.334,1.045-0.334,1.547c0,0.396,0.084,0.705,0.254,0.926
				c0.17,0.227,0.406,0.334,0.709,0.334c0.223,0,0.404-0.039,0.547-0.121c0.143-0.08,0.271-0.221,0.392-0.416
				c0.118-0.191,0.25-0.49,0.394-0.895c0.24-0.675,0.498-1.139,0.772-1.393C248.904,248.454,249.262,248.327,249.702,248.327z"/>
			<path fill="#FFFFFF" d="M251.412,247.014h-6.426v-0.746h6.426V247.014z"/>
			<path fill="#FFFFFF" d="M248.137,239.375c1.062,0,1.872,0.288,2.434,0.863c0.561,0.574,0.842,1.402,0.842,2.484v1.775h-6.426
				v-1.971c0-0.998,0.277-1.773,0.832-2.327C246.372,239.65,247.145,239.375,248.137,239.375z M248.164,240.166
				c-0.838,0-1.469,0.21-1.895,0.631c-0.424,0.421-0.637,1.046-0.637,1.874v1.085h5.133v-0.908c0-0.893-0.219-1.562-0.656-2.01
				C249.67,240.393,249.021,240.166,248.164,240.166z"/>
			<path fill="#FFFFFF" d="M251.412,234.361v3.582h-6.426v-3.582h0.664v2.834h2.07v-2.663h0.659v2.663h2.365v-2.834H251.412z"/>
			<path fill="#FFFFFF" d="M244.986,232.938v-1.812c0-0.854,0.127-1.472,0.382-1.853c0.255-0.381,0.657-0.568,1.208-0.568
				c0.381,0,0.695,0.104,0.941,0.316c0.248,0.211,0.408,0.521,0.482,0.932h0.043c0.168-0.979,0.68-1.467,1.539-1.467
				c0.574,0,1.021,0.195,1.344,0.582c0.322,0.393,0.484,0.935,0.484,1.632v2.237H244.986L244.986,232.938z M247.736,232.189v-1.229
				c0-0.526-0.082-0.905-0.248-1.138c-0.164-0.231-0.444-0.348-0.836-0.348c-0.36,0-0.62,0.129-0.78,0.387
				c-0.16,0.259-0.24,0.668-0.24,1.229v1.1H247.736L247.736,232.189z M248.371,232.189h2.402v-1.34c0-0.521-0.101-0.91-0.301-1.176
				c-0.199-0.262-0.515-0.395-0.941-0.395c-0.398,0-0.691,0.135-0.879,0.398c-0.188,0.271-0.281,0.676-0.281,1.229V232.189z"/>
			<path fill="#FFFFFF" d="M251.412,223.066l-2.044,0.801v2.574l2.044,0.791v0.756l-6.452-2.539v-0.629l6.452-2.526V223.066z
				 M248.695,224.102l-1.99,0.746c-0.252,0.098-0.561,0.195-0.928,0.299c0.281,0.063,0.591,0.158,0.928,0.276l1.99,0.757V224.102z"
				/>
			<path fill="#FFFFFF" d="M248.74,220.663h2.672v0.747h-6.426v-1.764c0-0.787,0.152-1.369,0.453-1.746
				c0.303-0.377,0.756-0.563,1.362-0.563c0.851,0,1.425,0.433,1.724,1.292l2.888-1.745v0.884l-2.672,1.561L248.74,220.663
				L248.74,220.663z M248.098,220.663v-1.022c0-0.523-0.104-0.914-0.314-1.16c-0.209-0.246-0.523-0.369-0.942-0.369
				c-0.425,0-0.731,0.125-0.918,0.375c-0.188,0.25-0.28,0.652-0.28,1.207v0.975L248.098,220.663L248.098,220.663z"/>
			<path fill="#FFFFFF" d="M249.332,216.361h-0.668v-2.158h0.668V216.361z"/>
			<path fill="#FFFFFF" d="M244.986,212.951v-1.814c0-0.854,0.127-1.47,0.382-1.851c0.255-0.382,0.657-0.571,1.208-0.571
				c0.381,0,0.695,0.105,0.941,0.319c0.248,0.212,0.408,0.521,0.482,0.929h0.043c0.168-0.977,0.68-1.463,1.539-1.463
				c0.574,0,1.021,0.193,1.344,0.582c0.322,0.391,0.484,0.932,0.484,1.628v2.241H244.986z M247.736,212.204v-1.229
				c0-0.522-0.082-0.906-0.248-1.139c-0.164-0.23-0.444-0.348-0.836-0.348c-0.36,0-0.62,0.13-0.78,0.388s-0.24,0.668-0.24,1.229v1.1
				L247.736,212.204L247.736,212.204z M248.371,212.204h2.402v-1.341c0-0.521-0.101-0.908-0.301-1.17
				c-0.199-0.264-0.515-0.396-0.941-0.396c-0.398,0-0.691,0.134-0.879,0.401c-0.188,0.267-0.281,0.676-0.281,1.224V212.204z"/>
		</g>
	</g>
</g>
<g id="widget_layouts" opacity="0.4">
	<g id="equal_bg">
		<rect x="290" y="188" fill="#888888" width="260" height="27"/>
	</g>
	<g id="widget_2_">
		<rect x="344" y="193" fill="#AAAAAA" width="64" height="17"/>
	</g>
	<g id="widget_1_">
		<rect x="413" y="193" fill="#AAAAAA" width="63" height="17"/>
	</g>
	<g id="widget">
		<rect x="481" y="193" fill="#AAAAAA" width="64" height="17"/>
	</g>
	<g id="double_bg">
		<rect x="290" y="274" fill="#888888" width="260" height="27"/>
	</g>
	<g id="widget_4_">
		<rect x="344" y="279" fill="#AAAAAA" width="132" height="17"/>
	</g>
	<g id="widget_3_">
		<rect x="481" y="279" fill="#AAAAAA" width="64" height="17"/>
	</g>
	<g id="stack_bg">
		<rect x="290" y="220" fill="#888888" width="260" height="49"/>
	</g>
	<g id="widget_5_">
		<rect x="344" y="225" fill="#AAAAAA" width="201" height="17"/>
	</g>
	<g id="widget_6_">
		<rect x="344" y="247" fill="#AAAAAA" width="201" height="17"/>
	</g>
</g>
<g id="sidebar_layouts" opacity="0.4">
	<rect id="sidebar-a_10_" x="290" y="34" fill="#AAAAAA" width="9" height="43"/>
	<rect id="sidebar-b_5_" x="304" y="34" fill="#AAAAAA" width="9" height="43"/>
	<rect id="content_12_" x="318" y="34" fill="#888888" width="40" height="43"/>
	<rect id="sidebar-a_9_" x="432" y="34" fill="#AAAAAA" width="9" height="43"/>
	<rect id="sidebar-b_4_" x="446" y="34" fill="#AAAAAA" width="9" height="43"/>
	<rect id="content_11_" x="388" y="34" fill="#888888" width="39" height="43"/>
	<rect id="sidebar-a_8_" x="481" y="34" fill="#AAAAAA" width="9" height="43"/>
	<rect id="sidebar-b_3_" x="541" y="34" fill="#AAAAAA" width="9" height="43"/>
	<rect id="content_10_" x="495" y="34" fill="#888888" width="41" height="43"/>
	<rect id="sidebar-a_7_" x="290" y="97" fill="#AAAAAA" width="9" height="43"/>
	<rect id="content_9_" x="304" y="97" fill="#888888" width="53" height="43"/>
	<rect id="sidebar-a_6_" x="446" y="97" fill="#AAAAAA" width="9" height="43"/>
	<rect id="content_8_" x="388" y="97" fill="#888888" width="53" height="43"/>
	<rect id="content_7_" x="482" y="97" fill="#888888" width="68" height="43"/>
</g>
<g id="sidebar_layouts_1_">
	<path fill="#AAAAAA" d="M296.514,20.531c0,0.817-0.297,1.454-0.89,1.911s-1.396,0.686-2.412,0.686
		c-1.101,0-1.946-0.142-2.539-0.425v-1.041c0.382,0.161,0.796,0.288,1.244,0.381s0.894,0.14,1.333,0.14
		c0.721,0,1.262-0.136,1.625-0.41c0.363-0.272,0.546-0.652,0.546-1.139c0-0.322-0.063-0.585-0.192-0.791
		c-0.129-0.205-0.346-0.395-0.646-0.568c-0.304-0.173-0.765-0.37-1.381-0.59c-0.863-0.309-1.479-0.675-1.853-1.098
		c-0.371-0.423-0.56-0.976-0.56-1.657c0-0.715,0.271-1.284,0.81-1.708c0.534-0.424,1.248-0.635,2.133-0.635
		c0.926,0,1.771,0.169,2.545,0.508l-0.336,0.939c-0.769-0.322-1.51-0.482-2.231-0.482c-0.569,0-1.021,0.123-1.34,0.368
		c-0.321,0.246-0.479,0.586-0.479,1.022c0,0.322,0.062,0.585,0.178,0.79c0.119,0.206,0.316,0.394,0.604,0.565
		c0.28,0.171,0.712,0.36,1.292,0.568c0.976,0.347,1.646,0.719,2.013,1.117C296.336,19.38,296.514,19.896,296.514,20.531z"/>
	<path fill="#AAAAAA" d="M298.163,14.158c0-0.241,0.06-0.418,0.178-0.53c0.118-0.112,0.269-0.168,0.444-0.168
		c0.169,0,0.312,0.057,0.438,0.171c0.123,0.114,0.188,0.29,0.188,0.527c0,0.237-0.062,0.414-0.188,0.53
		c-0.121,0.117-0.269,0.175-0.438,0.175c-0.178,0-0.326-0.058-0.444-0.175S298.163,14.395,298.163,14.158z M299.307,23h-1.055
		v-6.957h1.055V23z"/>
	<path fill="#AAAAAA" d="M306.275,22.067h-0.062c-0.482,0.707-1.214,1.06-2.184,1.06c-0.909,0-1.617-0.311-2.123-0.933
		c-0.508-0.622-0.76-1.506-0.76-2.653s0.256-2.038,0.764-2.672c0.508-0.634,1.214-0.952,2.119-0.952
		c0.938,0,1.668,0.343,2.172,1.028h0.082l-0.045-0.501l-0.025-0.489v-2.831h1.059V23h-0.855L306.275,22.067z M304.168,22.245
		c0.721,0,1.241-0.196,1.564-0.587c0.322-0.391,0.479-1.023,0.479-1.895v-0.222c0-0.986-0.16-1.689-0.487-2.111
		c-0.326-0.421-0.854-0.631-1.57-0.631c-0.617,0-1.09,0.24-1.418,0.72s-0.491,1.159-0.491,2.035c0,0.889,0.161,1.56,0.487,2.012
		C303.059,22.018,303.537,22.245,304.168,22.245z"/>
	<path fill="#AAAAAA" d="M312.445,23.127c-1.029,0-1.84-0.313-2.438-0.939c-0.595-0.626-0.892-1.496-0.892-2.609
		c0-1.122,0.271-2.012,0.824-2.672c0.556-0.66,1.297-0.99,2.229-0.99c0.872,0,1.562,0.287,2.068,0.86
		c0.509,0.573,0.763,1.33,0.763,2.269v0.667h-4.792c0.021,0.817,0.229,1.437,0.618,1.86c0.391,0.423,0.938,0.635,1.647,0.635
		c0.75,0,1.49-0.157,2.229-0.47v0.939c-0.373,0.161-0.729,0.276-1.062,0.346C313.314,23.092,312.914,23.127,312.445,23.127z
		 M312.159,16.798c-0.562,0-1.005,0.182-1.336,0.546c-0.332,0.364-0.528,0.868-0.587,1.511h3.637c0-0.665-0.148-1.173-0.443-1.527
		C313.133,16.975,312.709,16.798,312.159,16.798z"/>
	<path fill="#AAAAAA" d="M320.037,15.929c0.914,0,1.624,0.312,2.13,0.937c0.506,0.624,0.758,1.507,0.758,2.65
		s-0.255,2.03-0.765,2.663c-0.51,0.633-1.219,0.949-2.123,0.949c-0.453,0-0.866-0.083-1.241-0.251
		c-0.374-0.167-0.688-0.424-0.942-0.771h-0.074L317.557,23H316.8v-9.877h1.054v2.399c0,0.538-0.017,1.02-0.051,1.447h0.051
		C318.346,16.276,319.072,15.929,320.037,15.929z M319.885,16.811c-0.72,0-1.234,0.207-1.556,0.619
		c-0.315,0.413-0.478,1.108-0.478,2.085s0.162,1.677,0.485,2.098c0.325,0.421,0.853,0.631,1.567,0.631
		c0.646,0,1.13-0.236,1.441-0.708c0.317-0.472,0.479-1.15,0.479-2.035c0-0.906-0.158-1.581-0.479-2.025
		C321.038,17.032,320.549,16.811,319.885,16.811z"/>
	<path fill="#AAAAAA" d="M329.044,23l-0.21-0.99h-0.051c-0.35,0.436-0.692,0.731-1.037,0.886c-0.346,0.154-0.775,0.231-1.292,0.231
		c-0.688,0-1.229-0.178-1.622-0.533c-0.393-0.354-0.587-0.861-0.587-1.517c0-1.405,1.124-2.141,3.37-2.209l1.182-0.038v-0.432
		c0-0.546-0.117-0.949-0.354-1.209c-0.234-0.26-0.609-0.39-1.127-0.39c-0.58,0-1.234,0.178-1.969,0.533l-0.322-0.806
		c0.344-0.186,0.719-0.332,1.127-0.438c0.406-0.106,0.816-0.159,1.229-0.159c0.829,0,1.444,0.184,1.844,0.552
		c0.4,0.368,0.604,0.958,0.604,1.771V23H329.044z M326.664,22.257c0.654,0,1.171-0.18,1.545-0.54
		c0.375-0.36,0.562-0.863,0.562-1.511v-0.628l-1.061,0.044c-0.838,0.03-1.438,0.16-1.812,0.391c-0.368,0.23-0.559,0.589-0.559,1.076
		c0,0.381,0.114,0.671,0.348,0.87C325.925,22.158,326.249,22.257,326.664,22.257z"/>
	<path fill="#AAAAAA" d="M335.17,15.916c0.309,0,0.586,0.025,0.832,0.076l-0.146,0.978c-0.287-0.062-0.541-0.095-0.764-0.095
		c-0.562,0-1.044,0.229-1.441,0.686c-0.396,0.457-0.603,1.026-0.603,1.708V23h-1.054v-6.957h0.869l0.121,1.289h0.051
		c0.258-0.453,0.568-0.802,0.934-1.047C334.334,16.039,334.734,15.916,335.17,15.916z"/>
	<path fill="#AAAAAA" d="M341,23v-9.28h1.08v8.303h4.094V23H341z"/>
	<path fill="#AAAAAA" d="M351.867,23l-0.21-0.99h-0.052c-0.352,0.436-0.691,0.731-1.037,0.886c-0.35,0.154-0.774,0.231-1.291,0.231
		c-0.689,0-1.23-0.178-1.622-0.533c-0.396-0.354-0.587-0.861-0.587-1.517c0-1.405,1.123-2.141,3.369-2.209l1.183-0.038v-0.432
		c0-0.546-0.118-0.949-0.354-1.209c-0.229-0.26-0.604-0.39-1.127-0.39c-0.58,0-1.229,0.178-1.968,0.533l-0.323-0.806
		c0.348-0.186,0.723-0.332,1.127-0.438c0.407-0.106,0.817-0.159,1.229-0.159c0.829,0,1.443,0.184,1.844,0.552
		s0.604,0.958,0.604,1.771V23H351.867z M349.486,22.257c0.65,0,1.172-0.18,1.546-0.54c0.375-0.36,0.562-0.863,0.562-1.511v-0.628
		l-1.055,0.044c-0.838,0.03-1.441,0.16-1.812,0.391c-0.365,0.23-0.556,0.589-0.556,1.076c0,0.381,0.115,0.671,0.347,0.87
		C348.748,22.158,349.072,22.257,349.486,22.257z"/>
	<path fill="#AAAAAA" d="M353.715,16.043h1.131l1.522,3.967c0.334,0.906,0.542,1.56,0.622,1.961h0.051
		c0.055-0.216,0.17-0.585,0.346-1.107c0.182-0.523,0.75-2.13,1.729-4.821h1.13l-2.989,7.922c-0.297,0.783-0.643,1.338-1.038,1.666
		c-0.395,0.328-0.882,0.492-1.457,0.492c-0.316,0-0.639-0.036-0.951-0.108v-0.844c0.231,0.051,0.492,0.076,0.78,0.076
		c0.726,0,1.239-0.406,1.55-1.219l0.392-0.99L353.715,16.043z"/>
	<path fill="#AAAAAA" d="M367.375,19.515c0,1.134-0.286,2.02-0.855,2.657c-0.567,0.637-1.356,0.955-2.363,0.955
		c-0.622,0-1.18-0.146-1.657-0.438c-0.481-0.292-0.854-0.711-1.117-1.257c-0.262-0.546-0.394-1.185-0.394-1.917
		c0-1.134,0.279-2.018,0.851-2.65c0.567-0.633,1.354-0.949,2.361-0.949c0.974,0,1.747,0.324,2.315,0.971
		C367.088,17.534,367.375,18.411,367.375,19.515z M362.075,19.515c0,0.889,0.178,1.566,0.532,2.031s0.879,0.698,1.562,0.698
		c0.689,0,1.214-0.232,1.571-0.695c0.354-0.464,0.536-1.142,0.536-2.035c0-0.884-0.184-1.556-0.536-2.015
		c-0.357-0.459-0.886-0.689-1.584-0.689c-0.689,0-1.21,0.227-1.562,0.679C362.248,17.941,362.075,18.618,362.075,19.515z"/>
	<path fill="#AAAAAA" d="M370.212,16.043v4.513c0,0.567,0.129,0.99,0.388,1.27c0.264,0.279,0.662,0.419,1.213,0.419
		c0.729,0,1.265-0.199,1.602-0.597c0.336-0.398,0.505-1.047,0.505-1.949v-3.656h1.054V23h-0.871l-0.146-0.933h-0.062
		c-0.217,0.343-0.516,0.605-0.896,0.787s-0.82,0.273-1.312,0.273c-0.848,0-1.479-0.201-1.896-0.603s-0.632-1.045-0.632-1.93v-4.551
		H370.212z"/>
	<path fill="#AAAAAA" d="M379.448,22.257c0.187,0,0.366-0.014,0.54-0.042c0.173-0.027,0.311-0.056,0.412-0.085v0.806
		c-0.114,0.055-0.282,0.101-0.51,0.137c-0.223,0.036-0.423,0.054-0.601,0.054c-1.347,0-2.021-0.709-2.021-2.126v-4.139h-0.994
		v-0.508l0.994-0.438l0.44-1.485h0.608v1.612h2.02v0.819h-2.02v4.094c0,0.419,0.101,0.741,0.299,0.965
		C378.828,22.145,379.102,22.257,379.448,22.257z"/>
	<path fill="#AAAAAA" d="M386.277,21.102c0,0.647-0.241,1.147-0.729,1.498c-0.479,0.351-1.158,0.527-2.025,0.527
		c-0.928,0-1.646-0.146-2.158-0.438v-0.978c0.335,0.169,0.688,0.303,1.076,0.4c0.383,0.097,0.752,0.146,1.104,0.146
		c0.551,0,0.979-0.088,1.271-0.263c0.297-0.176,0.439-0.443,0.439-0.803c0-0.271-0.117-0.502-0.354-0.695
		c-0.234-0.193-0.692-0.42-1.373-0.683c-0.648-0.241-1.108-0.452-1.381-0.632c-0.273-0.18-0.479-0.384-0.609-0.612
		c-0.135-0.229-0.2-0.501-0.2-0.819c0-0.567,0.229-1.015,0.692-1.342c0.461-0.328,1.094-0.492,1.896-0.492
		c0.749,0,1.481,0.152,2.196,0.457l-0.375,0.857c-0.697-0.288-1.33-0.432-1.896-0.432c-0.498,0-0.877,0.078-1.133,0.235
		c-0.254,0.157-0.381,0.373-0.381,0.647c0,0.186,0.048,0.345,0.146,0.476c0.096,0.131,0.248,0.256,0.461,0.375
		c0.211,0.119,0.615,0.29,1.219,0.514c0.824,0.3,1.382,0.603,1.672,0.908C386.132,20.258,386.277,20.641,386.277,21.102z"/>
</g>
<g id="widget_layouts_1_">
	<path fill="#AAAAAA" d="M299.375,177.876h-1.066l-1.871-6.214c-0.09-0.275-0.188-0.622-0.299-1.041
		c-0.109-0.419-0.168-0.671-0.172-0.755c-0.093,0.559-0.24,1.17-0.443,1.834l-1.812,6.176h-1.062l-2.473-9.278h1.146l1.468,5.73
		c0.202,0.804,0.353,1.531,0.442,2.184c0.11-0.771,0.279-1.531,0.508-2.271l1.664-5.646h1.144l1.745,5.692
		c0.201,0.653,0.375,1.396,0.516,2.222c0.08-0.601,0.231-1.33,0.457-2.193l1.459-5.719h1.146L299.375,177.876z"/>
	<path fill="#AAAAAA" d="M303.062,169.034c0-0.241,0.061-0.418,0.179-0.53c0.118-0.111,0.267-0.168,0.442-0.168
		c0.168,0,0.312,0.059,0.438,0.171c0.123,0.114,0.186,0.29,0.186,0.527c0,0.235-0.062,0.414-0.186,0.528
		c-0.122,0.117-0.271,0.177-0.438,0.177c-0.182,0-0.324-0.06-0.442-0.177S303.062,169.271,303.062,169.034z M304.206,177.876h-1.054
		v-6.957h1.054V177.876z"/>
	<path fill="#AAAAAA" d="M311.176,176.941h-0.058c-0.486,0.707-1.214,1.062-2.187,1.062c-0.906,0-1.615-0.312-2.123-0.935
		c-0.507-0.62-0.761-1.506-0.761-2.651s0.257-2.038,0.767-2.672c0.508-0.636,1.215-0.952,2.117-0.952
		c0.941,0,1.668,0.344,2.174,1.027h0.08l-0.045-0.502l-0.022-0.487V168h1.055v9.876h-0.854L311.176,176.941z M309.068,177.121
		c0.72,0,1.238-0.196,1.562-0.587c0.324-0.392,0.485-1.023,0.485-1.896v-0.226c0-0.983-0.163-1.688-0.491-2.108
		c-0.328-0.424-0.854-0.634-1.571-0.634c-0.615,0-1.091,0.24-1.419,0.724c-0.325,0.479-0.489,1.155-0.489,2.035
		c0,0.889,0.162,1.56,0.486,2.012C307.959,176.895,308.438,177.121,309.068,177.121z"/>
	<path fill="#AAAAAA" d="M320.1,170.919v0.667l-1.285,0.15c0.115,0.146,0.228,0.344,0.314,0.582c0.094,0.238,0.141,0.51,0.141,0.811
		c0,0.682-0.229,1.227-0.696,1.631c-0.466,0.406-1.104,0.609-1.914,0.609c-0.207,0-0.402-0.018-0.586-0.053
		c-0.446,0.238-0.675,0.535-0.675,0.896c0,0.188,0.076,0.331,0.232,0.422c0.157,0.093,0.426,0.14,0.809,0.14h1.229
		c0.753,0,1.332,0.158,1.735,0.478c0.402,0.315,0.604,0.776,0.604,1.384c0,0.771-0.311,1.356-0.928,1.764
		c-0.617,0.401-1.521,0.604-2.703,0.604c-0.91,0-1.607-0.169-2.104-0.508c-0.492-0.342-0.737-0.817-0.737-1.438
		c0-0.425,0.135-0.789,0.405-1.1c0.27-0.311,0.646-0.521,1.144-0.628c-0.179-0.081-0.327-0.205-0.446-0.375
		c-0.121-0.169-0.183-0.366-0.183-0.591c0-0.256,0.063-0.478,0.203-0.666c0.136-0.191,0.35-0.375,0.641-0.555
		c-0.356-0.146-0.649-0.397-0.879-0.754c-0.228-0.354-0.34-0.765-0.34-1.222c0-0.762,0.229-1.351,0.687-1.761
		c0.457-0.413,1.104-0.619,1.942-0.619c0.362,0,0.69,0.042,0.981,0.127L320.1,170.919L320.1,170.919z M314.553,179.044
		c0,0.376,0.158,0.662,0.479,0.856c0.315,0.191,0.771,0.291,1.36,0.291c0.887,0,1.541-0.131,1.967-0.396
		c0.43-0.264,0.643-0.623,0.643-1.074c0-0.378-0.117-0.64-0.354-0.783c-0.229-0.146-0.672-0.222-1.312-0.222h-1.265
		c-0.479,0-0.854,0.114-1.115,0.345C314.688,178.289,314.553,178.617,314.553,179.044z M315.123,173.146
		c0,0.483,0.138,0.854,0.413,1.104c0.272,0.249,0.657,0.375,1.147,0.375c1.023,0,1.541-0.5,1.541-1.498
		c0-1.045-0.521-1.566-1.562-1.566c-0.495,0-0.876,0.133-1.146,0.398C315.255,172.229,315.123,172.622,315.123,173.146z"/>
	<path fill="#AAAAAA" d="M324.469,178.003c-1.027,0-1.84-0.312-2.435-0.938c-0.595-0.625-0.894-1.496-0.894-2.605
		c0-1.122,0.271-2.016,0.827-2.672c0.554-0.66,1.293-0.99,2.228-0.99c0.871,0,1.562,0.287,2.065,0.857
		c0.511,0.572,0.765,1.33,0.765,2.271v0.667h-4.791c0.021,0.817,0.227,1.438,0.615,1.86c0.394,0.423,0.939,0.635,1.65,0.635
		c0.75,0,1.49-0.154,2.227-0.47v0.938c-0.371,0.159-0.729,0.274-1.062,0.346C325.339,177.968,324.938,178.003,324.469,178.003z
		 M324.184,171.674c-0.56,0-1.004,0.184-1.336,0.547c-0.332,0.363-0.527,0.867-0.588,1.512h3.637c0-0.666-0.146-1.174-0.438-1.524
		C325.156,171.852,324.732,171.674,324.184,171.674z"/>
	<path fill="#AAAAAA" d="M331.068,177.133c0.188,0,0.365-0.014,0.541-0.042c0.173-0.026,0.311-0.056,0.41-0.085v0.807
		c-0.113,0.059-0.281,0.104-0.506,0.141c-0.225,0.033-0.425,0.054-0.603,0.054c-1.349,0-2.021-0.709-2.021-2.126v-4.143h-0.99
		v-0.508l0.996-0.438l0.439-1.482h0.609v1.609h2.019v0.816h-2.019v4.097c0,0.419,0.1,0.74,0.298,0.965
		C330.449,177.021,330.723,177.133,331.068,177.133z"/>
	<path fill="#AAAAAA" d="M336.947,177.876v-9.278h1.08v8.303h4.094v0.979L336.947,177.876L336.947,177.876z"/>
	<path fill="#AAAAAA" d="M347.814,177.876l-0.215-0.99h-0.052c-0.347,0.438-0.688,0.731-1.036,0.888
		c-0.346,0.152-0.771,0.229-1.291,0.229c-0.688,0-1.229-0.178-1.623-0.532c-0.393-0.354-0.586-0.861-0.586-1.518
		c0-1.405,1.123-2.143,3.368-2.209l1.187-0.038v-0.433c0-0.547-0.117-0.948-0.354-1.209c-0.23-0.26-0.605-0.394-1.127-0.394
		c-0.58,0-1.234,0.181-1.968,0.533l-0.324-0.81c0.345-0.187,0.72-0.332,1.127-0.438c0.408-0.104,0.818-0.158,1.229-0.158
		c0.828,0,1.438,0.186,1.844,0.553c0.396,0.369,0.6,0.959,0.6,1.771v4.75h-0.777L347.814,177.876L347.814,177.876z M345.436,177.133
		c0.654,0,1.176-0.18,1.549-0.54c0.375-0.358,0.562-0.862,0.562-1.511v-0.628l-1.055,0.044c-0.84,0.029-1.441,0.16-1.812,0.393
		c-0.369,0.229-0.556,0.588-0.556,1.074c0,0.383,0.114,0.672,0.347,0.87C344.695,177.034,345.02,177.133,345.436,177.133z"/>
	<path fill="#AAAAAA" d="M349.661,170.919h1.13l1.523,3.967c0.334,0.906,0.541,1.562,0.617,1.962h0.055
		c0.056-0.217,0.171-0.586,0.347-1.104c0.176-0.521,0.75-2.133,1.724-4.821h1.135l-2.988,7.923c-0.297,0.782-0.646,1.34-1.038,1.665
		c-0.396,0.328-0.882,0.492-1.457,0.492c-0.321,0-0.64-0.036-0.952-0.104v-0.848c0.232,0.055,0.493,0.076,0.781,0.076
		c0.723,0,1.238-0.404,1.549-1.221l0.387-0.988L349.661,170.919z"/>
	<path fill="#AAAAAA" d="M363.32,174.393c0,1.133-0.285,2.021-0.855,2.655c-0.572,0.638-1.355,0.955-2.367,0.955
		c-0.623,0-1.176-0.146-1.652-0.438c-0.482-0.293-0.854-0.711-1.117-1.258c-0.268-0.547-0.396-1.186-0.396-1.916
		c0-1.136,0.283-2.02,0.854-2.647c0.562-0.636,1.354-0.949,2.356-0.949c0.979,0,1.746,0.324,2.319,0.974
		C363.034,172.41,363.32,173.287,363.32,174.393z M358.021,174.393c0,0.892,0.178,1.564,0.527,2.029
		c0.355,0.467,0.878,0.698,1.567,0.698c0.688,0,1.214-0.231,1.569-0.695c0.354-0.464,0.532-1.142,0.532-2.034
		c0-0.885-0.179-1.557-0.532-2.016c-0.355-0.459-0.89-0.688-1.584-0.688c-0.688,0-1.211,0.228-1.562,0.68
		C358.193,172.816,358.021,173.494,358.021,174.393z"/>
	<path fill="#AAAAAA" d="M366.159,170.919v4.515c0,0.565,0.129,0.988,0.387,1.271c0.259,0.277,0.663,0.419,1.213,0.419
		c0.729,0,1.261-0.199,1.603-0.599c0.336-0.396,0.505-1.047,0.505-1.947v-3.656h1.053v6.956h-0.869l-0.149-0.935h-0.06
		c-0.217,0.345-0.516,0.604-0.896,0.787c-0.387,0.184-0.819,0.271-1.312,0.271c-0.847,0-1.479-0.201-1.898-0.604
		c-0.424-0.399-0.635-1.045-0.635-1.932v-4.551h1.064L366.159,170.919L366.159,170.919z"/>
	<path fill="#AAAAAA" d="M375.396,177.133c0.187,0,0.36-0.014,0.535-0.042c0.178-0.026,0.312-0.056,0.411-0.085v0.807
		c-0.108,0.059-0.276,0.104-0.505,0.141c-0.222,0.033-0.422,0.054-0.6,0.054c-1.352,0-2.021-0.709-2.021-2.126v-4.143h-0.996v-0.508
		l0.996-0.438l0.444-1.482h0.606v1.609h2.021v0.816h-2.021v4.097c0,0.419,0.103,0.74,0.301,0.965
		C374.775,177.021,375.049,177.133,375.396,177.133z"/>
	<path fill="#AAAAAA" d="M382.227,175.979c0,0.646-0.237,1.146-0.726,1.498c-0.483,0.354-1.159,0.526-2.03,0.526
		c-0.923,0-1.643-0.146-2.158-0.438v-0.979c0.34,0.169,0.692,0.305,1.076,0.398c0.387,0.099,0.752,0.146,1.106,0.146
		c0.551,0,0.974-0.088,1.271-0.263c0.297-0.178,0.444-0.443,0.444-0.805c0-0.271-0.118-0.502-0.353-0.693
		c-0.235-0.193-0.693-0.42-1.375-0.686c-0.647-0.24-1.107-0.451-1.385-0.632c-0.271-0.182-0.478-0.386-0.604-0.612
		c-0.134-0.229-0.2-0.5-0.2-0.816c0-0.564,0.23-1.018,0.691-1.342c0.461-0.328,1.095-0.492,1.896-0.492
		c0.749,0,1.48,0.15,2.196,0.457l-0.375,0.855c-0.697-0.289-1.33-0.435-1.897-0.435c-0.498,0-0.875,0.078-1.13,0.233
		c-0.254,0.156-0.381,0.373-0.381,0.646c0,0.188,0.048,0.35,0.144,0.479c0.101,0.132,0.248,0.257,0.465,0.375
		c0.211,0.119,0.613,0.289,1.22,0.515c0.823,0.3,1.382,0.604,1.672,0.908C382.08,175.131,382.227,175.518,382.227,175.979z"/>
</g>
<g id="widget_text">
	<path fill="#FFFFFF" d="M300.957,200.447c0,0.65-0.223,1.15-0.666,1.501c-0.443,0.35-1.078,0.524-1.904,0.524h-0.756V205h-0.748
		v-6.425h1.666C300.154,198.575,300.957,199.199,300.957,200.447z M297.631,201.832h0.672c0.662,0,1.143-0.107,1.438-0.321
		c0.295-0.214,0.44-0.557,0.44-1.028c0-0.424-0.14-0.739-0.418-0.947c-0.275-0.208-0.711-0.312-1.301-0.312h-0.834L297.631,201.832
		L297.631,201.832z"/>
	<path fill="#FFFFFF" d="M306.34,205l-0.8-2.043h-2.575L302.174,205h-0.756l2.54-6.451h0.628l2.527,6.451H306.34z M305.307,202.284
		l-0.746-1.991c-0.098-0.251-0.194-0.561-0.299-0.927c-0.062,0.28-0.154,0.591-0.275,0.927l-0.758,1.991H305.307z"/>
	<path fill="#FFFFFF" d="M308.744,202.328V205h-0.748v-6.425h1.763c0.788,0,1.37,0.151,1.747,0.452
		c0.376,0.303,0.564,0.756,0.564,1.363c0,0.85-0.434,1.424-1.293,1.723l1.746,2.887h-0.887l-1.556-2.672H308.744z M308.744,201.688
		h1.021c0.526,0,0.914-0.104,1.159-0.313c0.246-0.209,0.369-0.522,0.369-0.94c0-0.427-0.125-0.73-0.376-0.918
		c-0.25-0.188-0.652-0.281-1.206-0.281h-0.971L308.744,201.688L308.744,201.688z"/>
	<path fill="#FFFFFF" d="M317.6,205l-0.8-2.043h-2.575L313.434,205h-0.756l2.54-6.451h0.628l2.527,6.451H317.6z M316.566,202.284
		l-0.746-1.991c-0.1-0.251-0.197-0.561-0.299-0.927c-0.065,0.28-0.158,0.591-0.277,0.927l-0.756,1.991H316.566z"/>
	<path fill="#FFFFFF" d="M319.256,205v-6.425h0.748v5.748h2.834V205H319.256z"/>
	<path fill="#FFFFFF" d="M327.509,205h-3.582v-6.425h3.582v0.663h-2.834v2.07h2.662v0.657h-2.662v2.364h2.834V205z"/>
	<path fill="#FFFFFF" d="M328.932,205v-6.425h0.748v5.748h2.834V205H328.932z"/>
	<path fill="#FFFFFF" d="M333.604,205v-6.425h0.748v5.748h2.834V205H333.604z"/>
	<path fill="#FFFFFF" d="M300.509,246.091c0,0.565-0.204,1.007-0.614,1.322c-0.408,0.315-0.968,0.476-1.67,0.476
		c-0.763,0-1.349-0.099-1.759-0.296v-0.721c0.265,0.112,0.552,0.2,0.861,0.265c0.312,0.064,0.618,0.098,0.923,0.098
		c0.498,0,0.873-0.096,1.125-0.282s0.378-0.451,0.378-0.788c0-0.225-0.045-0.405-0.134-0.548c-0.09-0.144-0.239-0.272-0.448-0.396
		c-0.21-0.119-0.528-0.257-0.956-0.408c-0.598-0.215-1.023-0.467-1.281-0.76c-0.256-0.294-0.385-0.677-0.385-1.146
		c0-0.495,0.188-0.892,0.559-1.185c0.373-0.293,0.865-0.438,1.479-0.438c0.64,0,1.228,0.115,1.763,0.354l-0.23,0.648
		c-0.53-0.225-1.047-0.334-1.547-0.334c-0.396,0-0.705,0.086-0.93,0.256c-0.224,0.17-0.332,0.404-0.332,0.707
		c0,0.225,0.039,0.402,0.121,0.547s0.223,0.271,0.416,0.395c0.193,0.117,0.491,0.25,0.896,0.394c0.673,0.24,1.137,0.498,1.391,0.772
		C300.382,245.294,300.509,245.65,300.509,246.091z"/>
	<path fill="#FFFFFF" d="M303.801,247.8h-0.748v-5.762h-2.033v-0.663h4.815v0.663h-2.034V247.8L303.801,247.8z"/>
	<path fill="#FFFFFF" d="M310.84,247.8l-0.8-2.043h-2.575l-0.791,2.043h-0.756l2.54-6.45h0.628l2.527,6.45H310.84z M309.807,245.084
		l-0.746-1.991c-0.098-0.251-0.194-0.561-0.299-0.927c-0.062,0.281-0.154,0.591-0.275,0.927l-0.758,1.991H309.807z"/>
	<path fill="#FFFFFF" d="M315.248,241.95c-0.707,0-1.264,0.235-1.673,0.706c-0.408,0.47-0.612,1.113-0.612,1.931
		c0,0.843,0.196,1.491,0.592,1.949c0.396,0.459,0.955,0.688,1.687,0.688c0.446,0,0.96-0.08,1.534-0.242v0.656
		c-0.445,0.166-0.996,0.25-1.647,0.25c-0.946,0-1.677-0.287-2.19-0.861c-0.515-0.574-0.771-1.393-0.771-2.447
		c0-0.662,0.124-1.242,0.372-1.74c0.247-0.498,0.604-0.882,1.071-1.152c0.468-0.269,1.018-0.401,1.647-0.401
		c0.675,0,1.263,0.123,1.771,0.366l-0.316,0.646C316.221,242.064,315.732,241.95,315.248,241.95z"/>
	<path fill="#FFFFFF" d="M322.814,247.8h-0.881l-2.343-3.114l-0.672,0.6v2.518h-0.748v-6.425h0.748v3.188l2.913-3.188h0.884
		l-2.584,2.79L322.814,247.8z"/>
	<path fill="#FFFFFF" d="M327.279,247.8h-3.581v-6.425h3.581v0.663h-2.834v2.069h2.662v0.66h-2.662v2.361h2.834V247.8z"/>
	<path fill="#FFFFFF" d="M333.832,244.525c0,1.062-0.288,1.871-0.863,2.433c-0.576,0.562-1.402,0.842-2.482,0.842h-1.78v-6.425
		h1.969c0.999,0,1.775,0.275,2.33,0.831C333.555,242.759,333.832,243.532,333.832,244.525z M333.041,244.552
		c0-0.837-0.21-1.469-0.631-1.894c-0.42-0.426-1.045-0.639-1.874-0.639h-1.085v5.133h0.908c0.892,0,1.561-0.219,2.01-0.655
		C332.816,246.059,333.041,245.411,333.041,244.552z"/>
	<path fill="#FFFFFF" d="M302.012,287.326c0,1.061-0.287,1.871-0.861,2.432c-0.575,0.562-1.403,0.842-2.484,0.842h-1.779v-6.425
		h1.969c0.998,0,1.774,0.276,2.33,0.831C301.734,285.559,302.012,286.332,302.012,287.326z M301.221,287.352
		c0-0.836-0.209-1.469-0.631-1.894c-0.42-0.425-1.045-0.638-1.874-0.638h-1.085v5.133h0.909c0.892,0,1.56-0.219,2.009-0.656
		C300.996,288.857,301.221,288.211,301.221,287.352z"/>
	<path fill="#FFFFFF" d="M309.021,287.379c0,1.027-0.263,1.836-0.78,2.426c-0.521,0.588-1.243,0.883-2.168,0.883
		c-0.947,0-1.677-0.289-2.191-0.867c-0.514-0.576-0.771-1.396-0.771-2.448c0-1.045,0.258-1.854,0.771-2.435
		c0.519-0.576,1.248-0.86,2.197-0.86c0.924,0,1.646,0.293,2.162,0.879C308.762,285.539,309.021,286.348,309.021,287.379z
		 M303.9,287.379c0,0.869,0.186,1.529,0.557,1.979c0.37,0.449,0.908,0.678,1.615,0.678c0.711,0,1.248-0.227,1.609-0.676
		c0.363-0.445,0.545-1.105,0.545-1.979c0-0.861-0.181-1.521-0.543-1.967c-0.358-0.447-0.896-0.67-1.604-0.67
		c-0.711,0-1.253,0.225-1.623,0.674C304.086,285.866,303.9,286.521,303.9,287.379z"/>
	<path fill="#FFFFFF" d="M315.305,284.175v4.157c0,0.732-0.221,1.309-0.662,1.727c-0.44,0.42-1.051,0.629-1.822,0.629
		c-0.772,0-1.371-0.211-1.795-0.633c-0.426-0.422-0.637-1.002-0.637-1.74v-4.14h0.746v4.192c0,0.535,0.146,0.947,0.439,1.234
		s0.724,0.432,1.292,0.432c0.542,0,0.959-0.145,1.253-0.434c0.292-0.289,0.438-0.703,0.438-1.242v-4.186L315.305,284.175
		L315.305,284.175z"/>
	<path fill="#FFFFFF" d="M317.006,284.175h1.814c0.854,0,1.47,0.128,1.852,0.382c0.381,0.256,0.57,0.658,0.57,1.209
		c0,0.381-0.105,0.695-0.318,0.942c-0.212,0.248-0.521,0.408-0.93,0.481v0.043c0.977,0.168,1.464,0.681,1.464,1.539
		c0,0.571-0.194,1.021-0.582,1.345c-0.39,0.321-0.933,0.483-1.628,0.483h-2.242V284.175L317.006,284.175z M317.754,286.926h1.23
		c0.524,0,0.904-0.083,1.138-0.248c0.229-0.166,0.347-0.443,0.347-0.838c0-0.359-0.129-0.619-0.387-0.779s-0.668-0.24-1.23-0.24
		h-1.098V286.926z M317.754,287.559v2.404h1.34c0.521,0,0.909-0.102,1.172-0.302c0.264-0.2,0.396-0.515,0.396-0.942
		c0-0.398-0.134-0.691-0.402-0.879c-0.268-0.188-0.676-0.281-1.224-0.281H317.754z"/>
	<path fill="#FFFFFF" d="M322.837,290.6v-6.425h0.748v5.748h2.834v0.677H322.837z"/>
	<path fill="#FFFFFF" d="M331.09,290.6h-3.582v-6.425h3.582v0.663h-2.834v2.07h2.662v0.658h-2.662v2.365h2.834V290.6z"/>
	<path fill="#FFFFFF" d="M337.643,287.326c0,1.061-0.285,1.871-0.86,2.432c-0.576,0.562-1.404,0.842-2.485,0.842h-1.779v-6.425
		h1.971c0.998,0,1.773,0.276,2.33,0.831C337.365,285.559,337.643,286.332,337.643,287.326z M336.852,287.352
		c0-0.836-0.209-1.469-0.631-1.894c-0.42-0.425-1.045-0.638-1.873-0.638h-1.086v5.133h0.909c0.892,0,1.562-0.219,2.009-0.656
		C336.627,288.857,336.852,288.211,336.852,287.352z"/>
</g>
</svg>
