<?xml version="1.0" encoding="utf-8"?>
<!-- Generator: Adobe Illustrator 16.0.4, SVG Export Plug-In . SVG Version: 6.00 Build 0)  -->
<!DOCTYPE svg PUBLIC "-//W3C//DTD SVG 1.1//EN" "http://www.w3.org/Graphics/SVG/1.1/DTD/svg11.dtd">
<svg version="1.1" id="logo_small" xmlns="http://www.w3.org/2000/svg" xmlns:xlink="http://www.w3.org/1999/xlink" x="0px" y="0px"
	 width="60px" height="30px" viewBox="0 0 60 30" enable-background="new 0 0 60 30" xml:space="preserve">
<g id="typo">
	<g>
		<path fill="#e5e1d1" d="M12.402,9.504c-2.247,0-4.481,0.78-6.704,2.339L5.123,9.504H2.94V28h3.23V14.514
			c1.665-1.547,3.422-2.322,5.272-2.322c2.712,0,4.068,1.362,4.068,4.085v11.722h3.23V16.33
			C18.739,11.779,16.627,9.504,12.402,9.504z M24.059,27.999h3.23V9.504h-3.23V27.999z M34.716,6.123h-2.024v16.771
			c0,3.293,1.535,5.105,4.608,5.105h2.622v-2.784h-1.783c-1.479,0-2.218-0.854-2.218-2.565V12.123h4V9.504h-4.508L34.716,6.123z
			 M51.947,9.504c-5.854,0-8.782,2.985-8.782,8.956c0,6.25,3.09,9.54,9.271,9.54c2.315,0,4.365-0.175,5.982-0.523v-2.783
			c-1.617,0.349-3.318,0.522-4.936,0.522c-4.727,0-7.088-1.874-7.088-5.62h12.342C59.82,12.867,57.557,9.504,51.947,9.504z
			 M55.787,16.904h-9.393c0.209-3.211,1.887-4.817,5.028-4.817C54.495,12.087,55.949,13.694,55.787,16.904z"/>
	</g>
</g>
<path id="icon_flame" fill="#e5e1d1" d="M25.644,7.503c-2.081-0.188-2.933-1.796-1.986-2.648c0.946-0.851,2.648-1.892,3.311-3.973
	c0.662-2.081,0.946,0,1.324,1.324C28.67,3.531,27.725,7.692,25.644,7.503z"/>
</svg>
