<?xml version="1.0" encoding="utf-8"?>
<!-- Generator: Adobe Illustrator 17.0.0, SVG Export Plug-In . SVG Version: 6.00 Build 0)  -->
<!DOCTYPE svg PUBLIC "-//W3C//DTD SVG 1.1//EN" "http://www.w3.org/Graphics/SVG/1.1/DTD/svg11.dtd">
<svg version="1.1" id="图层_1" xmlns="http://www.w3.org/2000/svg" xmlns:xlink="http://www.w3.org/1999/xlink" x="0px" y="0px"
	 width="90px" height="60px" viewBox="0 0 90 60" enable-background="new 0 0 90 60" xml:space="preserve">
<g>
	<path fill="#E06521" d="M18.174,44.488c-0.442-0.166-0.562-0.492-0.559-0.948c0.025-3.392,0.037-6.785,0.038-10.177
		c0.001-2.206-0.024-4.411-0.035-6.617c-0.001-0.209-0.003-0.42,0.021-0.627c0.042-0.354,0.242-0.554,0.612-0.554
		c0.949,0,1.898-0.003,2.846,0.004c0.352,0.003,0.538,0.205,0.555,0.551c0.012,0.251,0.005,0.503,0.005,0.754
		c0.001,4.356-0.002,8.713,0.005,13.069c0.002,0.915-0.038,0.793,0.787,0.796c1.564,0.005,3.128-0.01,4.691,0.01
		c0.351,0.005,0.48-0.114,0.478-0.444c-0.001-0.279,0.023-0.558,0.023-0.837c0.001-11.645,0.001-23.29,0.001-34.935
		c0-0.14,0.001-0.279-0.004-0.419c-0.012-0.34-0.197-0.506-0.53-0.517c-0.112-0.004-0.223-0.003-0.335-0.003
		c-2.793-0.003-5.585-0.002-8.378-0.009c-0.701-0.002-0.726-0.036-0.731-0.741c-0.005-0.726-0.028-1.453,0.002-2.177
		c0.01-0.226,0.167-0.445,0.256-0.667c4.496,0,8.992,0,13.489,0c0.078,0.213,0.211,0.423,0.224,0.64
		c0.037,0.626,0.033,1.255,0.033,1.883c-0.001,13.605-0.003,27.21-0.005,40.815c0,1.059-0.003,1.059-1.067,1.059
		c-3.6,0.001-7.2,0-10.8,0.006c-0.233,0-0.466,0.055-0.7,0.084C18.788,44.488,18.481,44.488,18.174,44.488z"/>
	<path fill="#E06521" d="M66.934,8.713c-1.392,1.086-2.766,2.198-4.185,3.247c-0.606,0.448-0.854,0.987-0.851,1.706
		c0.012,3.42-0.008,6.841,0.039,10.261c0.013,0.912-0.239,1.723-0.543,2.549c-1.147,3.123-2.283,6.25-3.465,9.491
		c-0.014-0.25-0.029-0.389-0.029-0.529c0-7.26-0.008-14.519,0.016-21.779c0.003-0.802-0.286-1.328-0.922-1.785
		C55.75,10.98,54.55,10.025,53.328,9.1c-0.312-0.236-0.452-0.526-0.45-0.929c0.011-2.527,0.013-5.054-0.005-7.581
		c-0.003-0.399,0.1-0.531,0.512-0.519c1.004,0.03,2.011,0.03,3.015,0.002c0.402-0.011,0.499,0.144,0.495,0.507
		c-0.012,1.2-0.006,2.401,0.001,3.602c0.005,0.851,0.022,1.703,0.037,2.554c0.009,0.552,0.172,1.034,0.602,1.415
		c0.668,0.591,1.322,1.197,1.983,1.795c0.276,0.25,0.548,0.229,0.819-0.014c0.684-0.615,1.377-1.221,2.053-1.845
		c0.382-0.352,0.507-0.813,0.506-1.326c-0.002-2.052,0.018-4.105,0.001-6.157c-0.003-0.412,0.125-0.52,0.522-0.514
		c1.172,0.019,2.344-0.002,3.517-0.008C66.934,2.96,66.934,5.837,66.934,8.713z"/>
	<path fill="#E06521" d="M35.433,36.186c0-0.144,0-0.288,0-0.432c0-11.658-0.001-23.316-0.001-34.974c0-0.577,0.002-0.58,0.569-0.58
		c4.23,0.001,8.461,0.007,12.691-0.004c0.372-0.001,0.474,0.113,0.471,0.476c-0.016,1.633,0.045,3.269-0.03,4.899
		c-0.03,0.647-0.317,1.289-0.532,1.918c-0.753,2.202-1.53,4.395-2.288,6.595c-0.681,1.975-1.357,3.951-2.021,5.931
		c-0.788,2.352-1.562,4.708-2.339,7.063c-0.842,2.553-1.664,5.113-2.533,7.656c-0.205,0.599-0.261,1.188-0.256,1.804
		c0.009,1.215,0.002,2.429,0.001,3.644c0,0.178,0,0.357,0,0.567c0.21,0.014,0.374,0.034,0.537,0.034
		c1.689,0.001,3.379-0.01,5.068,0.003c0.385,0.003,0.512-0.081,0.51-0.511c-0.018-6.339-0.036-12.677,0.017-19.015
		c0.007-0.833,0.363-1.676,0.627-2.492c0.736-2.28,1.507-4.55,2.268-6.822c0.289-0.864,0.589-1.725,0.965-2.578
		c0,0.272,0,0.545,0,0.817c0,11.169,0,22.339,0,33.508c0,0.641-0.001,0.639-0.644,0.638c-4.133,0-8.265,0-12.398,0.001
		c-0.683,0-0.683,0.003-0.683-0.691c0-0.628,0.054-1.262-0.011-1.884c-0.152-1.463,0.278-2.808,0.73-4.158
		c0.668-1.994,1.321-3.992,1.98-5.988c0.637-1.931,1.273-3.863,1.906-5.795c0.985-3.004,1.967-6.01,2.953-9.014
		c0.708-2.157,1.422-4.313,2.125-6.472c0.081-0.248,0.149-0.514,0.151-0.772c0.013-1.843-0.001-3.686,0.013-5.529
		c0.003-0.336-0.11-0.432-0.433-0.43c-1.717,0.012-3.435,0.018-5.152-0.004c-0.427-0.005-0.538,0.131-0.537,0.548
		c0.012,6.729,0.013,13.459-0.003,20.188c-0.001,0.505-0.089,1.03-0.244,1.51c-1.021,3.155-2.072,6.301-3.111,9.45
		c-0.098,0.298-0.184,0.6-0.276,0.901C35.494,36.193,35.463,36.19,35.433,36.186z"/>
	<path fill="#E06521" d="M61.898,28.635c0.009,0.119,0.027,0.237,0.027,0.356c-0.001,4.927-0.003,9.853-0.006,14.78
		c0,0.597-0.002,0.598-0.601,0.598c-0.977,0.001-1.954-0.01-2.931,0.006c-0.348,0.005-0.5-0.087-0.494-0.471
		c0.02-1.256-0.051-2.516,0.031-3.767c0.042-0.636,0.307-1.265,0.52-1.88c1.102-3.186,2.22-6.366,3.333-9.548
		c0.013-0.038,0.034-0.074,0.051-0.111C61.852,28.611,61.875,28.623,61.898,28.635z"/>
	<path fill="#E06521" d="M0.011,35.662c0-1.34,0-2.679,0-4.019c0-10.331,0-20.663,0-30.994c0-0.546,0.001-0.548,0.558-0.548
		C4.897,0.1,9.226,0.103,13.553,0.091c0.36-0.001,0.502,0.087,0.485,0.465c-0.036,0.808-0.057,1.618-0.041,2.426
		c0.009,0.448-0.249,0.566-0.594,0.582c-0.599,0.029-1.2,0.027-1.8,0.027C9.342,3.596,7.08,3.594,4.818,3.595
		c-0.689,0-0.804,0.121-0.799,0.803C4.023,4.83,4.013,5.262,4.01,5.695C4.007,6.247,4.144,6.393,4.697,6.393
		c2.918,0.003,5.836,0.012,8.754-0.01c0.436-0.003,0.562,0.123,0.53,0.537c-0.032,0.416-0.031,0.839-0.002,1.256
		c0.027,0.392-0.09,0.53-0.507,0.527c-2.75-0.02-5.501-0.013-8.251-0.016c-0.112,0-0.223-0.001-0.335,0
		C4.221,8.695,4.007,8.889,3.999,9.563c-0.01,0.879,0.013,1.759,0.013,2.638c0.002,4.119,0.016,8.237-0.016,12.356
		c-0.004,0.494-0.229,0.996-0.401,1.477c-1.132,3.147-2.277,6.288-3.419,9.431c-0.028,0.076-0.069,0.147-0.103,0.22
		C0.052,35.677,0.032,35.67,0.011,35.662z"/>
	<path fill="#E06521" d="M4.015,28.487c0,0.161,0,0.322,0,0.484C4.012,32.6,4.01,36.228,4.007,39.857
		c-0.001,0.78,0.176,0.946,0.969,0.943c2.818-0.009,5.636-0.006,8.455-0.025c0.408-0.003,0.563,0.101,0.545,0.54
		c-0.036,0.864-0.024,1.73-0.004,2.595c0.007,0.337-0.088,0.469-0.443,0.469c-4.368-0.01-8.737-0.011-13.105-0.006
		c-0.3,0-0.42-0.079-0.417-0.4c0.014-1.34-0.039-2.682,0.028-4.018c0.028-0.553,0.27-1.102,0.456-1.638
		c1.095-3.158,2.202-6.311,3.306-9.465c0.045-0.127,0.103-0.25,0.156-0.374C3.973,28.479,3.994,28.483,4.015,28.487z"/>
</g>
</svg>
