<?xml version="1.0" encoding="utf-8"?>
<!-- Generator: Adobe Illustrator 18.0.0, SVG Export Plug-In . SVG Version: 6.00 Build 0)  -->
<!DOCTYPE svg PUBLIC "-//W3C//DTD SVG 1.1//EN" "http://www.w3.org/Graphics/SVG/1.1/DTD/svg11.dtd">
<svg version="1.1" id="图层_1" xmlns="http://www.w3.org/2000/svg" xmlns:xlink="http://www.w3.org/1999/xlink" x="0px" y="0px"
	 viewBox="0 0 80 41.5" enable-background="new 0 0 80 41.5" xml:space="preserve">
<g>
	<path fill="#F08300" d="M32.2,4.9c0,0.4-0.3,0.6-0.6,0.6h-5.4c-0.4,0-0.6-0.3-0.6-0.6V0.6c0-0.4,0.3-0.6,0.6-0.6h5.4
		c0.4,0,0.6,0.3,0.6,0.6V4.9z"/>
	<path fill="#F08300" d="M30.2,38l-1.6,2.7c-0.4,0.7-0.6,0.9-1.1,0.9h-4.6c-0.3,0-0.5-0.2-0.5-0.5c0-0.1,0-0.3,0.1-0.5l1.9-3.7
		c1.3-2.5,1.3-3.1,1.3-6.1V9c0-0.4,0.2-0.7,0.6-0.7h4.8c0.4,0,0.6,0.3,0.6,0.7v21.8C31.9,33.8,31.6,35.5,30.2,38z"/>
	<path fill="#F08300" d="M79.9,9.1l-7.6,15.3v9.6c0,0.4-0.3,0.7-0.7,0.7h-4.7c-0.4,0-0.6-0.3-0.6-0.7v-9.6L58.6,9.1
		c-0.1-0.1-0.1-0.2-0.1-0.3c0-0.3,0.2-0.5,0.5-0.5h5.2c0.4,0,0.5,0.3,0.7,0.6l4.4,9.6l4.3-9.6c0.1-0.3,0.4-0.6,0.7-0.6h5.2
		c0.3,0,0.5,0.2,0.5,0.5C80,8.9,80,9,79.9,9.1z"/>
	<path fill="#F08300" d="M21.2,13.7c0,0.5-0.4,0.9-0.9,0.9H5.4c-0.5,0-4.4,0-5.4,0V7.4c1.9,1.2,4,1.7,5.4,1.7h14.9
		c0.5,0,0.9,0.4,0.9,0.9V13.7z"/>
	<path fill="#F08300" d="M21.2,29.2c0-0.5-0.4-0.9-0.9-0.9H5.4c-0.5,0-4.4,0-5.4,0v7.3c1.9-1.2,4-1.7,5.4-1.7h14.9
		c0.5,0,0.9-0.4,0.9-0.9V29.2z"/>
	<path fill="#F08300" d="M0,18.2c0,0,1.7,0.6,3.2,0.6c1.8,0,15.4,0,15.4,0c0.5,0,0.9,0.4,0.9,0.9v3.6c0,0.5-0.4,0.9-0.9,0.9
		c0,0-13.7,0-15.4,0c-1.3,0-3.2,0.6-3.2,0.6V18.2z"/>
	<path fill="#F08300" d="M46.7,8c-4.5,0-8.3,1.9-9.8,6.7h6.6c0.7-0.9,1.8-1.3,3.2-1.3c3,0,4.4,1.8,4.4,6.1v4.2
		c0,4.2-1.4,6.1-4.4,6.1c-3,0-4.4-1.8-4.4-6.1v-4.2c0-0.2,0-0.4,0-0.7h-6.1c0,0.2,0,0.4,0,0.7v4.2c0,8.2,4.6,11.4,10.5,11.4
		c5.8,0,10.5-3.1,10.5-11.4v-4.2C57.2,11.2,52.5,8,46.7,8z"/>
</g>
</svg>
