<?xml version="1.0" encoding="utf-8"?>
<!-- Generator: Adobe Illustrator 16.0.4, SVG Export Plug-In . SVG Version: 6.00 Build 0)  -->
<!DOCTYPE svg PUBLIC "-//W3C//DTD SVG 1.1//EN" "http://www.w3.org/Graphics/SVG/1.1/DTD/svg11.dtd">
<svg version="1.1" id="logo" xmlns="http://www.w3.org/2000/svg" xmlns:xlink="http://www.w3.org/1999/xlink" x="0px" y="0px"
	 width="90px" height="45px" viewBox="0 0 90 45" enable-background="new 0 0 90 45" xml:space="preserve">
<g id="typo">
	<g>
		<path fill="#545250" d="M17.619,15.458c-3.393,0-6.768,1.178-10.125,3.533l-0.87-3.533H3.328v27.937h4.878V23.025
			c2.514-2.337,5.168-3.507,7.963-3.507c4.096,0,6.144,2.057,6.144,6.169v17.705h4.878V25.768C27.19,18.895,24,15.458,17.619,15.458
			z M35.225,43.393h4.878V15.458h-4.878V43.393z M51.322,10.351h-3.059v25.331c0,4.977,2.319,7.713,6.961,7.713h3.961v-4.205h-2.694
			c-2.231,0-3.349-1.291-3.349-3.877V19.413h6.043v-3.955h-6.81L51.322,10.351z M77.348,15.458c-8.843,0-13.264,4.509-13.264,13.526
			c0,9.438,4.667,14.408,14.001,14.408c3.498,0,6.595-0.265,9.037-0.791v-4.205c-2.442,0.526-5.013,0.791-7.455,0.791
			c-7.138,0-10.705-2.83-10.705-8.489h18.642C89.238,20.538,85.818,15.458,77.348,15.458z M83.146,26.637H68.962
			c0.315-4.852,2.849-7.277,7.595-7.277C81.195,19.36,83.393,21.786,83.146,26.637z"/>
	</g>
</g>
<path id="icon_flame" fill="#545250" d="M37.619,12.436c-3.143-0.285-4.429-2.714-3-4c1.429-1.285,4-2.857,5-6s1.429,0,2,2
	C42.19,6.437,40.762,12.722,37.619,12.436z"/>
</svg>
