<?xml version="1.0" encoding="utf-8"?>
<!-- Generator: Adobe Illustrator 16.0.4, SVG Export Plug-In . SVG Version: 6.00 Build 0)  -->
<!DOCTYPE svg PUBLIC "-//W3C//DTD SVG 1.1//EN" "http://www.w3.org/Graphics/SVG/1.1/DTD/svg11.dtd">
<svg version="1.1" id="grunge_x5F_border" xmlns="http://www.w3.org/2000/svg" xmlns:xlink="http://www.w3.org/1999/xlink" x="0px"
	 y="0px" width="1000px" height="15px" viewBox="0 0 1000 15" enable-background="new 0 0 1000 15" xml:space="preserve">
<path id="path" fill="#d63b49" d="M0,0v3.979V14v1h1000v-1V3.891V0.837c0-0.368,0-0.368,0-0.577V0h-12.602
	c-1.666,0.134-3.812,0.021-8.215,0.003c0.008-0.002,0.018-0.001,0.025-0.003h-0.469l-0.018,0.001C978.479,0,978.232,0,977.973,0
	c-0.002,0-0.005,0-0.007,0c-0.358,0-0.585,0.076-0.88,0.117l0.58-0.041c-4.134,1.005-8.859,2.576-13.449,2.636L969.8,3.15
	c-7.78,0.263-15.961,0.936-24.431,1.462C917.057,4.074,879,2.987,877,3.928V3.686c-4,0.994,2.34,1.96-10.049,2.509l-8.314-0.444
	L846.134,6.18c-8.347-0.324-4.271-0.589-4.271-0.711c-20.28,0.459-48.588-0.09-73.151-0.223l26.013,2.713
	C774,7.333,736.607,6.061,732.477,6.936l-12.451-0.912c-41.551-1.743-29.012,0.753-45.592,0.23l-20.869-0.993l20.766,0.017
	c-20.766-0.502-29.071-0.829-45.632-1.475c0,0.009-0.183,0.015-0.183,0.026c1.142,0.041,1.879,0.087,2.03,0.147
	c-0.151-0.058-0.889-0.106-2.03-0.147c-0.041,0.063-0.639,0.114-0.865,0.171l0,0c0.227-0.057,0.824-0.11,0.865-0.171L627.65,4
	h-0.004c-2.516,0.496-13.349,0.835-27.981,0.8c-20.775-0.14-37.024,0.594-70.197-0.459l-8.284,1.016l-24.916-0.606l6.064-0.106
	l-11.667-0.818c-62.084,0.091-28.355-0.901-93.146-1.816l5.631,0.406c-12.839,0.239-25.636,0.47-29.229-0.186
	c0.225,0.002,0.396,0.002,0.512,0.004l-1.515-0.381c0.07,0.149,0.49,0.271,0.981,0.375c-38.9-0.133-79.195-0.643-104.455-1.666
	l-5.527,0.953c-8.215-0.054-20.532-1.494-24.534-0.16L221.83,1.778c-11.227-0.073-18.109,0.471-30.89-0.075V1.702
	c-0.03-0.001-0.07-0.003-0.07-0.003c-0.789-0.036-1.617-0.074-2.416-0.111c0,0.028,0.073,0.054,0.143,0.078
	c-25.414-0.421,0.252,0.855-28.85,0.306c-9.337-0.677-10.327,1.209-24.504,0.993l-14.237-1.366
	C95.31,0.816,90.915,2.185,53.689,2.191C38.631,1.782,30.131,0.891,34.902,0H32.74c-7.885,0.639-4.719,0.42-22.725,0.921
	C7.13,0.475,8.492,0.333,12.02,0H0z"/>
</svg>
