<?xml version="1.0" encoding="utf-8"?>
<!-- Generator: Adobe Illustrator 16.0.4, SVG Export Plug-In . SVG Version: 6.00 Build 0)  -->
<!DOCTYPE svg PUBLIC "-//W3C//DTD SVG 1.1//EN" "http://www.w3.org/Graphics/SVG/1.1/DTD/svg11.dtd">
<svg version="1.1" id="grunge_x5F_border" xmlns="http://www.w3.org/2000/svg" xmlns:xlink="http://www.w3.org/1999/xlink" x="0px"
	 y="0px" width="1000px" height="15px" viewBox="0 0 1000 15" enable-background="new 0 0 1000 15" xml:space="preserve">
<path id="path" fill="#cc313f" d="M987.98,15c3.528-0.333,4.89-0.475,2.004-0.921c-18.006,0.501-14.84,0.282-22.725,0.921h-2.162
	c4.771-0.891-3.729-1.782-18.787-2.191c-37.226,0.006-41.621,1.375-67.317,0.592l-14.237-1.366
	c-14.177-0.216-15.167,1.67-24.504,0.993c-29.102-0.549-3.436,0.727-28.85,0.306c0.07,0.024,0.143,0.05,0.143,0.078
	c-0.799-0.037-1.627-0.075-2.416-0.111c0,0-0.04-0.002-0.07-0.003v-0.001c-12.781-0.546-19.664-0.002-30.89-0.075l-17.552,0.422
	c-4.002,1.334-16.319-0.106-24.534-0.16l-5.527,0.953c-25.26-1.023-65.555-1.533-104.455-1.666c0.491,0.104,0.911,0.226,0.981,0.375
	l-1.515-0.381c0.117,0.002,0.287,0.002,0.512,0.004c-3.594-0.656-16.391-0.425-29.229-0.186l5.63,0.406
	c-64.791-0.915-31.062-1.907-93.146-1.816l-11.667-0.818l6.064-0.106l-24.916-0.606l-8.284,1.016
	c-33.173-1.053-49.422-0.319-70.197-0.459c-14.631-0.032-25.464,0.307-27.98,0.803h-0.004l-0.865,0.171
	c0.042-0.062,0.639-0.114,0.865-0.171l0,0c-0.226,0.057-0.823,0.107-0.865,0.171c-1.141-0.041-1.879-0.089-2.03-0.147
	c0.151,0.06,0.889,0.106,2.03,0.147c0,0.011-0.182,0.017-0.182,0.026c-16.561-0.646-24.867-0.973-45.632-1.475l20.765,0.017
	l-20.868-0.993c-16.581-0.523-4.042,1.973-45.593,0.23l-12.45-0.912C263.392,8.939,226,7.667,205.275,7.041l26.013,2.713
	c-24.564-0.133-52.871-0.682-73.151-0.223c0-0.122,4.076-0.387-4.271-0.711l-12.502,0.429l-8.315-0.444
	C120.66,9.354,127,10.32,123,11.314v-0.242c-2,0.941-40.056-0.146-68.369-0.684c-8.47,0.525-16.65,1.198-24.431,1.461l5.583,0.438
	c-4.589,0.06-9.315,1.631-13.449,2.636l0.58-0.041C22.619,14.924,22.393,15,22.034,15c-0.002,0-0.004,0-0.007,0
	c-0.259,0-0.505,0-0.75-0.001L21.26,15h-0.469c0.008-0.002,0.017-0.001,0.025-0.003c-4.403-0.019-6.548-0.131-8.214,0.003H0v-0.26
	c0-0.209,0-0.209,0-0.577v-3.054V1V0h1000v1v10.021V15H987.98z"/>
</svg>
