<?xml version="1.0" encoding="utf-8"?>
<!-- Generator: Adobe Illustrator 16.0.4, SVG Export Plug-In . SVG Version: 6.00 Build 0)  -->
<!DOCTYPE svg PUBLIC "-//W3C//DTD SVG 1.1//EN" "http://www.w3.org/Graphics/SVG/1.1/DTD/svg11.dtd">
<svg version="1.1" id="grunge_x5F_border" xmlns="http://www.w3.org/2000/svg" xmlns:xlink="http://www.w3.org/1999/xlink" x="0px"
	 y="0px" width="1000px" height="15px" viewBox="0 0 1000 15" enable-background="new 0 0 1000 15" xml:space="preserve">
<path id="path" fill="#E5E1D1" d="M107.604,9.459c0.933-0.158,1.893-0.334,2.461-0.826C109.732,9.441,108.786,9.543,107.604,9.459z
	 M121.826,9.617c0.377,0.163,0.901,0.246,1.35,0.369C123.322,9.6,123.234,9.318,121.826,9.617z M1005,0.052V15H0V0
	c9.056,0,6.485,3.168,17.167,2.167L16,6.917c1.731,2.32-0.047-1.507,3.75-0.083c0.204-1.942,3.519-0.626,7.533-1.175l-2.936,2.535
	l4.654-0.197l-0.71,0.303c-0.28,2.598,3.97,0.123,5.747,1.789c6.666-0.453-3.029-2.355,2.242-2.211
	c-1.008,2.9,10.735-1.656,12.92,2.32l14.772-2.201L63.116,9.6c2.794-1.23,5.645-3.094,8.82-2.039
	c1.311,0.053-3.335,0.246-4.091,1.195c6.329,2.141,14.901-3.502,17.082,0.475c3.948,0.123,4.179-1.828,3.628-2.834
	c1.018,2.641,9.824,0.598,14.395,1.05l-2.243,2.241c1.835-1.213,4.757-0.387,6.897-0.229c-1.483,0.246-2.958,0.439-3.104,1.635
	c5.956-0.158,13.08,1.02,18.489-0.149c-0.297-0.149,0.058-0.606,0.187-0.958c5.743,1.459,17.708,0.035,25.805-1.239
	c-1.998,0.885-7.558,1.067-4.111,2.632c1.5-0.291,3.073-0.49,4.752-0.559c2.987-1.053,1.793-2.717,7.482-3.809
	c1.164,1.34-4.806,1.498-1.079,3.555l6.955-3.054l-0.302,2.597c2.053-0.381,4.122-0.556,6.198-0.585
	c13.419-1.144,27.823-0.11,41.729-1.472l-0.152-0.527c0.258,0.176,0.517,0.318,0.776,0.463c0.638-0.066,1.278-0.121,1.914-0.197
	l-1.098,0.602c3.193,1.416,6.392,0.88,9.237,1.461c0.02-0.863,0.712-1.519,3.851-1.101c-0.784,0.434-2.08,0.882-2.75,1.388
	c0.424,0.145,0.835,0.342,1.238,0.57c18.436-4.579,54.908-3.477,83.487-5.857c39.736,1.49,82.847-2.308,121.881-1.118
	c-5.95-0.157-3.419,4.637,1.066,3.531c12.259-8.121,21.269,1.359,33.799-4.179c22.738,2.605,43.035-4.44,64.193,1.783l0.408-2.29
	c3.157-1.049,4.014,0.542,7.331,0.77l-0.08-0.644c7.837-0.86,17.321,1.465,21.819,0.367l0.288,2.584
	c4.658,0.214,2.416-2.002,7.189-0.524l-0.138-1.294l5.563,2.447c-0.537-4.527,13.139-0.366,16.864-2.412
	c6.025,0.809,17.459,2.763,26.597,1.854c1.701-2.326,12.908-2.309,20.049-3.479c13.91,0.577,33.785,1.329,51.493,0.507l-0.319,2.938
	l4.622,0.192c-0.066-0.644,0.555-0.983-0.142-1.294c3.578-3.34,10.665,1.018,14.382-1.049c-2.336,2.657-3.237,0.419-5.875,0.489
	c-3.792,1.398-0.169,4.231,4.951,2.78l-0.102-0.647l3.494,1.539c0.391-2.291,3.565-3.357,3.97-5.63
	c15.221,0.542,25.58,4.476,41.281,3.392c-1.616-2.553,11.287,0.647,8.13-3.785c9.431,1.67-1.554,3.589,2.753,6.727
	c2.633-0.074,5.399,1.149,5.874-0.494c-1.238-1.066,2.141-2.7,0-3.111l6.301,0.35c0.6-0.35-0.786-0.962-1.483-1.255
	c12.833,2.566,22.757-2.906,34.267-0.318c0.856,1.6-4.569,0.454-3.73,2.062c11.585,3.252,10.235-2.885,21.043-0.586l-2.238-2.211
	c3.49,1.524,5.018,3.427,10.75,1.647c1.004-2.627-4.871-2.138-7.638-3.357c3.943-0.108,13.912,0.573,10.875,2.938
	c4.725,0.853,6.438-1.473,8.986-2.186c0.085,0.643-4.408,1.744-1.643,2.955c6.425-1.473,16.354-1.421,24.209-1.647
	c-0.071-0.647,0.479-1.626-0.205-1.941c4.723,2.54,5.543-0.078,9.283-1.252h13.592c21.694,1.286,47.416,3.811,67.672,2.948
	c4.999,3.448,12.294,3.566,19.621,4.336l0.776-4.577L985,4.172c2.486-1.381-4.698-0.856-0.302-2.584l2.31,2.838
	c0.479-1.635,15.696-1.075,5.442-4.362L1005,0.052z M210.971,9.327l-0.085-0.298l-0.229,0.126
	C210.754,9.219,210.869,9.267,210.971,9.327z M766.766,4.714l1.687,0.088C768.075,4.731,767.568,4.696,766.766,4.714z"/>
</svg>
